<?xml version="1.0" encoding="UTF-8"?>
<svg xmlns="http://www.w3.org/2000/svg" viewBox="0 0 1024 320" width="1024" height="320"
     shape-rendering="geometricPrecision">
  <title>grass — glossy backdrop layer</title>
  <desc>Parallax layer for the Clash town view. Source: tools/build-clash-troops-glossy.mjs.</desc>
  <defs>
    <!-- soft drop shadow -->
    <filter id="gk-shadow-soft" x="-30%" y="-30%" width="160%" height="160%">
      <feGaussianBlur in="SourceAlpha" stdDeviation="3"/>
      <feOffset dx="0" dy="3" result="b"/>
      <feComponentTransfer><feFuncA type="linear" slope="0.55"/></feComponentTransfer>
      <feMerge><feMergeNode/><feMergeNode in="SourceGraphic"/></feMerge>
    </filter>
    <!-- subtle bevel/emboss via specular lighting -->
    <filter id="gk-bevel" x="-10%" y="-10%" width="120%" height="120%">
      <feGaussianBlur in="SourceAlpha" stdDeviation="2" result="blur"/>
      <feSpecularLighting in="blur" surfaceScale="3" specularConstant="0.6"
                          specularExponent="20" lighting-color="#ffffff" result="spec">
        <feDistantLight azimuth="135" elevation="55"/>
      </feSpecularLighting>
      <feComposite in="spec" in2="SourceAlpha" operator="in" result="specMasked"/>
      <feComposite in="SourceGraphic" in2="specMasked" operator="arithmetic"
                   k1="0" k2="1" k3="1" k4="0"/>
    </filter>
    <!-- gloss highlight — white→transparent, upper-left -->
    <linearGradient id="gk-gloss" x1="0" y1="0" x2="0.7" y2="0.9">
      <stop offset="0"    stop-color="#FFFFFF" stop-opacity="0.85"/>
      <stop offset="0.55" stop-color="#FFFFFF" stop-opacity="0.18"/>
      <stop offset="1"    stop-color="#FFFFFF" stop-opacity="0"/>
    </linearGradient>
    <!-- contact-shadow ellipse fill (dark→transparent radial) -->
    <radialGradient id="gk-contact-shadow" cx="0.5" cy="0.5" r="0.5">
      <stop offset="0"   stop-color="#000000" stop-opacity="0.55"/>
      <stop offset="0.7" stop-color="#000000" stop-opacity="0.15"/>
      <stop offset="1"   stop-color="#000000" stop-opacity="0"/>
    </radialGradient>
    
    <linearGradient id="gk-grad-wood" x1="0.2" y1="0.1" x2="0.85" y2="0.95">
      <stop offset="0"   stop-color="#C99560"/>
      <stop offset="0.55" stop-color="#A06A36"/>
      <stop offset="1"   stop-color="#6E4621"/>
    </linearGradient>
    <radialGradient id="gk-rgrad-wood" cx="0.35" cy="0.25" r="0.85">
      <stop offset="0"    stop-color="#C99560"/>
      <stop offset="0.55" stop-color="#A06A36"/>
      <stop offset="1"    stop-color="#6E4621"/>
    </radialGradient>

    <linearGradient id="gk-grad-stone" x1="0.2" y1="0.1" x2="0.85" y2="0.95">
      <stop offset="0"   stop-color="#C9CCD4"/>
      <stop offset="0.55" stop-color="#9298A4"/>
      <stop offset="1"   stop-color="#5E6471"/>
    </linearGradient>
    <radialGradient id="gk-rgrad-stone" cx="0.35" cy="0.25" r="0.85">
      <stop offset="0"    stop-color="#C9CCD4"/>
      <stop offset="0.55" stop-color="#9298A4"/>
      <stop offset="1"    stop-color="#5E6471"/>
    </radialGradient>

    <linearGradient id="gk-grad-brick" x1="0.2" y1="0.1" x2="0.85" y2="0.95">
      <stop offset="0"   stop-color="#CE684D"/>
      <stop offset="0.55" stop-color="#9C4231"/>
      <stop offset="1"   stop-color="#6A2618"/>
    </linearGradient>
    <radialGradient id="gk-rgrad-brick" cx="0.35" cy="0.25" r="0.85">
      <stop offset="0"    stop-color="#CE684D"/>
      <stop offset="0.55" stop-color="#9C4231"/>
      <stop offset="1"    stop-color="#6A2618"/>
    </radialGradient>

    <linearGradient id="gk-grad-thatch" x1="0.2" y1="0.1" x2="0.85" y2="0.95">
      <stop offset="0"   stop-color="#E3B563"/>
      <stop offset="0.55" stop-color="#B0832F"/>
      <stop offset="1"   stop-color="#79581B"/>
    </linearGradient>
    <radialGradient id="gk-rgrad-thatch" cx="0.35" cy="0.25" r="0.85">
      <stop offset="0"    stop-color="#E3B563"/>
      <stop offset="0.55" stop-color="#B0832F"/>
      <stop offset="1"    stop-color="#79581B"/>
    </radialGradient>

    <linearGradient id="gk-grad-steel" x1="0.2" y1="0.1" x2="0.85" y2="0.95">
      <stop offset="0"   stop-color="#A0B0BE"/>
      <stop offset="0.55" stop-color="#6F8190"/>
      <stop offset="1"   stop-color="#3F4D5A"/>
    </linearGradient>
    <radialGradient id="gk-rgrad-steel" cx="0.35" cy="0.25" r="0.85">
      <stop offset="0"    stop-color="#A0B0BE"/>
      <stop offset="0.55" stop-color="#6F8190"/>
      <stop offset="1"    stop-color="#3F4D5A"/>
    </radialGradient>

    <linearGradient id="gk-grad-iron" x1="0.2" y1="0.1" x2="0.85" y2="0.95">
      <stop offset="0"   stop-color="#6B7080"/>
      <stop offset="0.55" stop-color="#43485A"/>
      <stop offset="1"   stop-color="#21253A"/>
    </linearGradient>
    <radialGradient id="gk-rgrad-iron" cx="0.35" cy="0.25" r="0.85">
      <stop offset="0"    stop-color="#6B7080"/>
      <stop offset="0.55" stop-color="#43485A"/>
      <stop offset="1"    stop-color="#21253A"/>
    </radialGradient>

    <linearGradient id="gk-grad-copper" x1="0.2" y1="0.1" x2="0.85" y2="0.95">
      <stop offset="0"   stop-color="#E2A172"/>
      <stop offset="0.55" stop-color="#B36839"/>
      <stop offset="1"   stop-color="#7A3F1B"/>
    </linearGradient>
    <radialGradient id="gk-rgrad-copper" cx="0.35" cy="0.25" r="0.85">
      <stop offset="0"    stop-color="#E2A172"/>
      <stop offset="0.55" stop-color="#B36839"/>
      <stop offset="1"    stop-color="#7A3F1B"/>
    </radialGradient>

    <linearGradient id="gk-grad-gold" x1="0.2" y1="0.1" x2="0.85" y2="0.95">
      <stop offset="0"   stop-color="#FFD970"/>
      <stop offset="0.55" stop-color="#E5AC1F"/>
      <stop offset="1"   stop-color="#9F7505"/>
    </linearGradient>
    <radialGradient id="gk-rgrad-gold" cx="0.35" cy="0.25" r="0.85">
      <stop offset="0"    stop-color="#FFD970"/>
      <stop offset="0.55" stop-color="#E5AC1F"/>
      <stop offset="1"    stop-color="#9F7505"/>
    </radialGradient>

    <linearGradient id="gk-grad-ruby" x1="0.2" y1="0.1" x2="0.85" y2="0.95">
      <stop offset="0"   stop-color="#FF7A8C"/>
      <stop offset="0.55" stop-color="#D62E48"/>
      <stop offset="1"   stop-color="#8C1428"/>
    </linearGradient>
    <radialGradient id="gk-rgrad-ruby" cx="0.35" cy="0.25" r="0.85">
      <stop offset="0"    stop-color="#FF7A8C"/>
      <stop offset="0.55" stop-color="#D62E48"/>
      <stop offset="1"    stop-color="#8C1428"/>
    </radialGradient>

    <linearGradient id="gk-grad-emerald" x1="0.2" y1="0.1" x2="0.85" y2="0.95">
      <stop offset="0"   stop-color="#5BDD96"/>
      <stop offset="0.55" stop-color="#1FA561"/>
      <stop offset="1"   stop-color="#0E6C3D"/>
    </linearGradient>
    <radialGradient id="gk-rgrad-emerald" cx="0.35" cy="0.25" r="0.85">
      <stop offset="0"    stop-color="#5BDD96"/>
      <stop offset="0.55" stop-color="#1FA561"/>
      <stop offset="1"    stop-color="#0E6C3D"/>
    </radialGradient>

    <linearGradient id="gk-grad-sapphire" x1="0.2" y1="0.1" x2="0.85" y2="0.95">
      <stop offset="0"   stop-color="#5A9EF7"/>
      <stop offset="0.55" stop-color="#235FCB"/>
      <stop offset="1"   stop-color="#103480"/>
    </linearGradient>
    <radialGradient id="gk-rgrad-sapphire" cx="0.35" cy="0.25" r="0.85">
      <stop offset="0"    stop-color="#5A9EF7"/>
      <stop offset="0.55" stop-color="#235FCB"/>
      <stop offset="1"    stop-color="#103480"/>
    </radialGradient>

    <linearGradient id="gk-grad-amethyst" x1="0.2" y1="0.1" x2="0.85" y2="0.95">
      <stop offset="0"   stop-color="#B581FF"/>
      <stop offset="0.55" stop-color="#7E47D6"/>
      <stop offset="1"   stop-color="#4C2289"/>
    </linearGradient>
    <radialGradient id="gk-rgrad-amethyst" cx="0.35" cy="0.25" r="0.85">
      <stop offset="0"    stop-color="#B581FF"/>
      <stop offset="0.55" stop-color="#7E47D6"/>
      <stop offset="1"    stop-color="#4C2289"/>
    </radialGradient>

    <linearGradient id="gk-grad-leaf" x1="0.2" y1="0.1" x2="0.85" y2="0.95">
      <stop offset="0"   stop-color="#7BD15A"/>
      <stop offset="0.55" stop-color="#3D9226"/>
      <stop offset="1"   stop-color="#1F5712"/>
    </linearGradient>
    <radialGradient id="gk-rgrad-leaf" cx="0.35" cy="0.25" r="0.85">
      <stop offset="0"    stop-color="#7BD15A"/>
      <stop offset="0.55" stop-color="#3D9226"/>
      <stop offset="1"    stop-color="#1F5712"/>
    </radialGradient>

    <linearGradient id="gk-grad-sky" x1="0.2" y1="0.1" x2="0.85" y2="0.95">
      <stop offset="0"   stop-color="#A8D9FF"/>
      <stop offset="0.55" stop-color="#5FA8E8"/>
      <stop offset="1"   stop-color="#2C6BB0"/>
    </linearGradient>
    <radialGradient id="gk-rgrad-sky" cx="0.35" cy="0.25" r="0.85">
      <stop offset="0"    stop-color="#A8D9FF"/>
      <stop offset="0.55" stop-color="#5FA8E8"/>
      <stop offset="1"    stop-color="#2C6BB0"/>
    </radialGradient>

    <linearGradient id="gk-grad-dark" x1="0.2" y1="0.1" x2="0.85" y2="0.95">
      <stop offset="0"   stop-color="#3A4250"/>
      <stop offset="0.55" stop-color="#222937"/>
      <stop offset="1"   stop-color="#10141C"/>
    </linearGradient>
    <radialGradient id="gk-rgrad-dark" cx="0.35" cy="0.25" r="0.85">
      <stop offset="0"    stop-color="#3A4250"/>
      <stop offset="0.55" stop-color="#222937"/>
      <stop offset="1"    stop-color="#10141C"/>
    </radialGradient>

    <linearGradient id="gk-grad-cream" x1="0.2" y1="0.1" x2="0.85" y2="0.95">
      <stop offset="0"   stop-color="#FFF6D8"/>
      <stop offset="0.55" stop-color="#F1DDA4"/>
      <stop offset="1"   stop-color="#B19D6E"/>
    </linearGradient>
    <radialGradient id="gk-rgrad-cream" cx="0.35" cy="0.25" r="0.85">
      <stop offset="0"    stop-color="#FFF6D8"/>
      <stop offset="0.55" stop-color="#F1DDA4"/>
      <stop offset="1"    stop-color="#B19D6E"/>
    </radialGradient>
    
    <radialGradient id="gk-rarity-common" cx="0.5" cy="0.55" r="0.55">
      <stop offset="0"   stop-color="#9298A4" stop-opacity="0.85"/>
      <stop offset="0.6" stop-color="#9298A4" stop-opacity="0.35"/>
      <stop offset="1"   stop-color="#9298A4" stop-opacity="0"/>
    </radialGradient>

    <radialGradient id="gk-rarity-uncommon" cx="0.5" cy="0.55" r="0.55">
      <stop offset="0"   stop-color="#3D9226" stop-opacity="0.85"/>
      <stop offset="0.6" stop-color="#3D9226" stop-opacity="0.35"/>
      <stop offset="1"   stop-color="#3D9226" stop-opacity="0"/>
    </radialGradient>

    <radialGradient id="gk-rarity-rare" cx="0.5" cy="0.55" r="0.55">
      <stop offset="0"   stop-color="#235FCB" stop-opacity="0.85"/>
      <stop offset="0.6" stop-color="#235FCB" stop-opacity="0.35"/>
      <stop offset="1"   stop-color="#235FCB" stop-opacity="0"/>
    </radialGradient>

    <radialGradient id="gk-rarity-epic" cx="0.5" cy="0.55" r="0.55">
      <stop offset="0"   stop-color="#7E47D6" stop-opacity="0.85"/>
      <stop offset="0.6" stop-color="#7E47D6" stop-opacity="0.35"/>
      <stop offset="1"   stop-color="#7E47D6" stop-opacity="0"/>
    </radialGradient>

    <radialGradient id="gk-rarity-legendary" cx="0.5" cy="0.55" r="0.55">
      <stop offset="0"   stop-color="#E5AC1F" stop-opacity="0.85"/>
      <stop offset="0.6" stop-color="#E5AC1F" stop-opacity="0.35"/>
      <stop offset="1"   stop-color="#E5AC1F" stop-opacity="0"/>
    </radialGradient>

    <radialGradient id="gk-rarity-mythic" cx="0.5" cy="0.55" r="0.55">
      <stop offset="0"   stop-color="#D62E48" stop-opacity="0.85"/>
      <stop offset="0.6" stop-color="#D62E48" stop-opacity="0.35"/>
      <stop offset="1"   stop-color="#D62E48" stop-opacity="0"/>
    </radialGradient>
  </defs>
  
<rect x="0" y="260" width="1024" height="60" fill="url(#gk-grad-leaf)"/>
<rect x="0" y="260" width="1024" height="6" fill="#7BD15A" opacity="0.7"/>
<!-- grass tufts -->
<g stroke="#0A2A06" stroke-width="1.5" fill="none">
  <path d="M 16 316 L 20 302 M 18 316 L 12 304 M 20 316 L 24 306"/>
  <path d="M 48 316 L 52 302 M 50 316 L 44 304 M 52 316 L 56 306"/>
  <path d="M 80 316 L 84 302 M 82 316 L 76 304 M 84 316 L 88 306"/>
  <path d="M 112 316 L 116 302 M 114 316 L 108 304 M 116 316 L 120 306"/>
  <path d="M 144 316 L 148 302 M 146 316 L 140 304 M 148 316 L 152 306"/>
  <path d="M 176 316 L 180 302 M 178 316 L 172 304 M 180 316 L 184 306"/>
  <path d="M 208 316 L 212 302 M 210 316 L 204 304 M 212 316 L 216 306"/>
  <path d="M 240 316 L 244 302 M 242 316 L 236 304 M 244 316 L 248 306"/>
  <path d="M 272 316 L 276 302 M 274 316 L 268 304 M 276 316 L 280 306"/>
  <path d="M 304 316 L 308 302 M 306 316 L 300 304 M 308 316 L 312 306"/>
  <path d="M 336 316 L 340 302 M 338 316 L 332 304 M 340 316 L 344 306"/>
  <path d="M 368 316 L 372 302 M 370 316 L 364 304 M 372 316 L 376 306"/>
  <path d="M 400 316 L 404 302 M 402 316 L 396 304 M 404 316 L 408 306"/>
  <path d="M 432 316 L 436 302 M 434 316 L 428 304 M 436 316 L 440 306"/>
  <path d="M 464 316 L 468 302 M 466 316 L 460 304 M 468 316 L 472 306"/>
  <path d="M 496 316 L 500 302 M 498 316 L 492 304 M 500 316 L 504 306"/>
  <path d="M 528 316 L 532 302 M 530 316 L 524 304 M 532 316 L 536 306"/>
  <path d="M 560 316 L 564 302 M 562 316 L 556 304 M 564 316 L 568 306"/>
  <path d="M 592 316 L 596 302 M 594 316 L 588 304 M 596 316 L 600 306"/>
  <path d="M 624 316 L 628 302 M 626 316 L 620 304 M 628 316 L 632 306"/>
  <path d="M 656 316 L 660 302 M 658 316 L 652 304 M 660 316 L 664 306"/>
  <path d="M 688 316 L 692 302 M 690 316 L 684 304 M 692 316 L 696 306"/>
  <path d="M 720 316 L 724 302 M 722 316 L 716 304 M 724 316 L 728 306"/>
  <path d="M 752 316 L 756 302 M 754 316 L 748 304 M 756 316 L 760 306"/>
  <path d="M 784 316 L 788 302 M 786 316 L 780 304 M 788 316 L 792 306"/>
  <path d="M 816 316 L 820 302 M 818 316 L 812 304 M 820 316 L 824 306"/>
  <path d="M 848 316 L 852 302 M 850 316 L 844 304 M 852 316 L 856 306"/>
  <path d="M 880 316 L 884 302 M 882 316 L 876 304 M 884 316 L 888 306"/>
  <path d="M 912 316 L 916 302 M 914 316 L 908 304 M 916 316 L 920 306"/>
  <path d="M 944 316 L 948 302 M 946 316 L 940 304 M 948 316 L 952 306"/>
  <path d="M 976 316 L 980 302 M 978 316 L 972 304 M 980 316 L 984 306"/>
  <path d="M 1008 316 L 1012 302 M 1010 316 L 1004 304 M 1012 316 L 1016 306"/>
</g>

</svg>
