<svg viewBox="0 0 480 270"><defs><linearGradient id="d_bgwash" x1="0" y1="0" x2="0" y2="1"><stop offset="0" stop-color="#9d8cff" stop-opacity="0.18"/><stop offset="0.5" stop-color="#2bd4d4" stop-opacity="0.07"/><stop offset="1" stop-color="#0a0c12" stop-opacity="0"/></linearGradient><radialGradient id="d_glow" cx="0.5" cy="0.42" r="0.62"><stop offset="0" stop-color="#7de4d4" stop-opacity="0.55"/><stop offset="0.55" stop-color="#9d8cff" stop-opacity="0.22"/><stop offset="1" stop-color="#0a0c12" stop-opacity="0"/></radialGradient><linearGradient id="d_frame" x1="0" y1="0" x2="1" y2="1"><stop offset="0" stop-color="#aef3ea"/><stop offset="0.28" stop-color="#2bd4d4"/><stop offset="0.55" stop-color="#7a5cff"/><stop offset="0.78" stop-color="#9d8cff"/><stop offset="1" stop-color="#2bd4d4"/></linearGradient><linearGradient id="d_foil" x1="0" y1="0" x2="1" y2="0"><stop offset="0" stop-color="#ffffff" stop-opacity="0"/><stop offset="0.4" stop-color="#ffffff" stop-opacity="0.85"/><stop offset="0.5" stop-color="#aef3ea" stop-opacity="0.9"/><stop offset="0.6" stop-color="#ffffff" stop-opacity="0.85"/><stop offset="1" stop-color="#ffffff" stop-opacity="0"/></linearGradient><linearGradient id="d_card" x1="0" y1="0" x2="0.4" y2="1"><stop offset="0" stop-color="#141a2c"/><stop offset="0.5" stop-color="#0e1320"/><stop offset="1" stop-color="#080a12"/></linearGradient><linearGradient id="d_gold" x1="0" y1="0" x2="1" y2="1"><stop offset="0" stop-color="#fff0b8"/><stop offset="0.5" stop-color="#ffd24a"/><stop offset="1" stop-color="#c98a16"/></linearGradient><radialGradient id="d_av" cx="0.4" cy="0.32" r="0.85"><stop offset="0" stop-color="#aef3ea"/><stop offset="0.5" stop-color="#2bd4d4"/><stop offset="1" stop-color="#7a5cff"/></radialGradient><linearGradient id="d_portrait" x1="0" y1="0" x2="0" y2="1"><stop offset="0" stop-color="#1a2440"/><stop offset="1" stop-color="#0c1322"/></linearGradient><linearGradient id="d_plate" x1="0" y1="0" x2="0" y2="1"><stop offset="0" stop-color="#21304f"/><stop offset="1" stop-color="#0f1828"/></linearGradient><radialGradient id="d_gem" cx="0.4" cy="0.3" r="0.8"><stop offset="0" stop-color="#aef3ea"/><stop offset="0.6" stop-color="#2bd4d4"/><stop offset="1" stop-color="#1b6f86"/></radialGradient><filter id="d_soft" x="-40%" y="-40%" width="180%" height="180%"><feGaussianBlur stdDeviation="4"/></filter><filter id="d_drop" x="-30%" y="-30%" width="160%" height="160%"><feDropShadow dx="0" dy="5" stdDeviation="7" flood-color="#000000" flood-opacity="0.55"/></filter><filter id="d_ringglow" x="-60%" y="-60%" width="220%" height="220%"><feGaussianBlur stdDeviation="2.4"/></filter><clipPath id="d_avclip"><circle cx="0" cy="0" r="33"/></clipPath><clipPath id="d_cardclip"><rect x="-78" y="-108" width="156" height="216" rx="14"/></clipPath></defs><rect x="0" y="0" width="480" height="270" fill="url(#d_bgwash)"/><ellipse cx="240" cy="120" rx="210" ry="150" fill="url(#d_glow)"/><g opacity="0.9"><circle cx="92" cy="58" r="2.3" fill="#aef3ea" filter="url(#d_ringglow)"/><circle cx="402" cy="78" r="2" fill="#ffd24a" filter="url(#d_ringglow)"/><circle cx="63" cy="170" r="1.8" fill="#9d8cff" filter="url(#d_ringglow)"/><circle cx="420" cy="200" r="2.4" fill="#7de4d4" filter="url(#d_ringglow)"/><circle cx="150" cy="36" r="1.6" fill="#fff0b8" filter="url(#d_ringglow)"/><circle cx="360" cy="40" r="1.5" fill="#aef3ea" filter="url(#d_ringglow)"/></g><g transform="translate(264 138) rotate(7)" opacity="0.62"><rect x="-78" y="-108" width="156" height="216" rx="14" fill="url(#d_frame)"/><rect x="-72" y="-102" width="144" height="204" rx="11" fill="url(#d_card)"/></g><g transform="translate(232 134) rotate(-6) skewY(-2)" filter="url(#d_drop)"><rect x="-83" y="-113" width="166" height="226" rx="16" fill="url(#d_frame)" opacity="0.6" filter="url(#d_soft)"/><rect x="-78" y="-108" width="156" height="216" rx="14" fill="url(#d_frame)"/><rect x="-72" y="-102" width="144" height="204" rx="11" fill="url(#d_card)"/><g clip-path="url(#d_cardclip)"><rect x="-66" y="-96" width="132" height="192" rx="8" fill="url(#d_portrait)"/><rect x="-78" y="-108" width="40" height="216" fill="url(#d_foil)" opacity="0.35" transform="translate(40 0) skewX(-12)"/></g><rect x="-72" y="-102" width="144" height="204" rx="11" fill="none" stroke="url(#d_gold)" stroke-width="1.6" opacity="0.85"/><rect x="-66" y="-96" width="132" height="100" rx="8" fill="none" stroke="#2bd4d4" stroke-width="1" opacity="0.45"/><g transform="translate(0 -56)"><circle cx="0" cy="0" r="40" fill="#7a5cff" opacity="0.5" filter="url(#d_soft)"/><circle cx="0" cy="0" r="37" fill="none" stroke="url(#d_gold)" stroke-width="3"/><circle cx="0" cy="0" r="33.5" fill="none" stroke="#aef3ea" stroke-width="1.4" opacity="0.8"/><g clip-path="url(#d_avclip)"><rect x="-33" y="-33" width="66" height="66" fill="url(#d_av)"/><circle cx="0" cy="-8" r="11" fill="#ffffff" opacity="0.95"/><path d="M-19 30 Q0 8 19 30 L19 33 -19 33 Z" fill="#ffffff" opacity="0.95"/><circle cx="-9" cy="-30" r="20" fill="#ffffff" opacity="0.12"/></g><path d="M-4 -2 a3 3 0 0 1 8 0" fill="none" stroke="#16324a" stroke-width="2" opacity="0.5"/></g><g transform="translate(0 2)"><rect x="-60" y="-13" width="120" height="26" rx="6" fill="url(#d_plate)" stroke="url(#d_gold)" stroke-width="1.2"/><text x="0" y="5" font-family="Arial,Helvetica,sans-serif" font-size="15" font-weight="700" fill="#ffffff" text-anchor="middle" letter-spacing="0.4">@aurora_fan</text></g><text x="0" y="38" font-family="Arial,Helvetica,sans-serif" font-size="9" font-weight="700" fill="#7de4d4" text-anchor="middle" letter-spacing="2.2">NEW FOLLOWER</text><g transform="translate(-44 66)"><circle cx="0" cy="0" r="13" fill="#1a2236" stroke="url(#d_gold)" stroke-width="1.4"/><path d="M0 -8 L2.4 -2.4 8 -2 3.6 2 5 7.6 0 4.4 -5 7.6 -3.6 2 -8 -2 -2.4 -2.4 Z" fill="url(#d_gold)"/></g><g transform="translate(0 66)"><circle cx="0" cy="0" r="13" fill="#241a3a" stroke="#9d8cff" stroke-width="1.4"/><text x="0" y="5" font-family="Arial,Helvetica,sans-serif" font-size="14" font-weight="800" fill="#aef3ea" text-anchor="middle">P</text></g><g transform="translate(44 66)"><circle cx="0" cy="0" r="13" fill="#13283a" stroke="#2bd4d4" stroke-width="1.4"/><path d="M0 -7 L6 -2 4 7 -4 7 -6 -2 Z" fill="url(#d_gem)"/><path d="M0 -7 L0 7 M-6 -2 L6 -2" stroke="#aef3ea" stroke-width="0.6" opacity="0.7"/></g><g transform="translate(54 -86)"><path d="M0 -10 L9 -3 5.6 9 -5.6 9 -9 -3 Z" fill="#0d1626" stroke="url(#d_gold)" stroke-width="1.2"/><path d="M0 -6 L5 -1.6 3 6 -3 6 -5 -1.6 Z" fill="url(#d_gem)"/><circle cx="-1.5" cy="-2" r="1.4" fill="#ffffff" opacity="0.9"/></g><rect x="-78" y="-108" width="50" height="216" fill="url(#d_foil)" opacity="0.5" transform="translate(50 0) skewX(-14)"><animate attributeName="opacity" values="0.5;0.5" dur="1s"/></rect></g><g transform="translate(232 134) rotate(-6)" opacity="0.95"><circle cx="-78" cy="-104" r="3" fill="#ffffff" filter="url(#d_ringglow)"/><path d="M-78 -111 l1.6 5 5 1.6 -5 1.6 -1.6 5 -1.6 -5 -5 -1.6 5 -1.6 Z" fill="#fff0b8" filter="url(#d_ringglow)"/><path d="M80 86 l1.3 4 4 1.3 -4 1.3 -1.3 4 -1.3 -4 -4 -1.3 4 -1.3 Z" fill="#aef3ea" filter="url(#d_ringglow)"/></g></svg>