<svg viewBox="0 0 256 256"><defs><linearGradient id="cl_bodyGrad" x1="0" y1="0" x2="0" y2="1"><stop offset="0" stop-color="#9a1828"/><stop offset="0.45" stop-color="#7a1020"/><stop offset="1" stop-color="#4a0a16"/></linearGradient><linearGradient id="cl_bandGrad" x1="0" y1="0" x2="0" y2="1"><stop offset="0" stop-color="#8c1424"/><stop offset="1" stop-color="#3d0813"/></linearGradient><linearGradient id="cl_boneGrad" x1="0" y1="0" x2="0" y2="1"><stop offset="0" stop-color="#f2ead4"/><stop offset="0.6" stop-color="#e6dcc4"/><stop offset="1" stop-color="#c4b896"/></linearGradient><linearGradient id="cl_goldGrad" x1="0" y1="0" x2="0" y2="1"><stop offset="0" stop-color="#f6d27a"/><stop offset="0.4" stop-color="#e0a93a"/><stop offset="1" stop-color="#a06d1d"/></linearGradient><linearGradient id="cl_goldGrad2" x1="0" y1="0" x2="0" y2="1"><stop offset="0" stop-color="#ffe49a"/><stop offset="0.5" stop-color="#e0a93a"/><stop offset="1" stop-color="#8a5c16"/></linearGradient><radialGradient id="cl_eyeWhite" cx="0.5" cy="0.42" r="0.62"><stop offset="0" stop-color="#fdf7e8"/><stop offset="0.7" stop-color="#f0e6d0"/><stop offset="1" stop-color="#cdbf9c"/></radialGradient><radialGradient id="cl_iris" cx="0.5" cy="0.45" r="0.6"><stop offset="0" stop-color="#e8324a"/><stop offset="0.5" stop-color="#b3122a"/><stop offset="1" stop-color="#6e0a1a"/></radialGradient><radialGradient id="cl_eyeGlow" cx="0.5" cy="0.5" r="0.5"><stop offset="0" stop-color="#ff5a6e" stop-opacity="0.9"/><stop offset="0.5" stop-color="#c0142e" stop-opacity="0.45"/><stop offset="1" stop-color="#c0142e" stop-opacity="0"/></radialGradient><radialGradient id="cl_gemGrad" cx="0.4" cy="0.35" r="0.7"><stop offset="0" stop-color="#ff7b66"/><stop offset="0.5" stop-color="#b3122a"/><stop offset="1" stop-color="#590812"/></radialGradient><radialGradient id="cl_groundShadow" cx="0.5" cy="0.5" r="0.5"><stop offset="0" stop-color="#000000" stop-opacity="0.5"/><stop offset="0.7" stop-color="#000000" stop-opacity="0.22"/><stop offset="1" stop-color="#000000" stop-opacity="0"/></radialGradient><filter id="cl_glow" x="-40%" y="-40%" width="180%" height="180%"><feGaussianBlur stdDeviation="4.5" result="b"/><feMerge><feMergeNode in="b"/><feMergeNode in="SourceGraphic"/></feMerge></filter><filter id="cl_softShadow" x="-20%" y="-20%" width="140%" height="140%"><feDropShadow dx="0" dy="3" stdDeviation="2.5" flood-color="#1a0309" flood-opacity="0.55"/></filter><filter id="cl_grime" x="-20%" y="-20%" width="140%" height="140%"><feTurbulence type="fractalNoise" baseFrequency="0.9" numOctaves="2" seed="7" result="n"/><feColorMatrix in="n" type="matrix" values="0 0 0 0 0  0 0 0 0 0  0 0 0 0 0  0 0 0 0.5 0" result="na"/><feComposite in="na" in2="SourceGraphic" operator="in"/></filter><filter id="cl_metalShine" x="-30%" y="-30%" width="160%" height="160%"><feGaussianBlur in="SourceAlpha" stdDeviation="1.5" result="blur"/><feSpecularLighting in="blur" surfaceScale="3" specularConstant="0.8" specularExponent="18" lighting-color="#fff3d0" result="spec"><fePointLight x="90" y="40" z="120"/></feSpecularLighting><feComposite in="spec" in2="SourceAlpha" operator="in" result="specClip"/><feMerge><feMergeNode in="SourceGraphic"/><feMergeNode in="specClip"/></feMerge></filter><clipPath id="cl_bodyClip"><path d="M44 196 L40 96 L72 132 L92 70 L128 118 L164 70 L184 132 L216 96 L212 196 Z"/></clipPath></defs><ellipse cx="128" cy="218" rx="86" ry="18" fill="url(#cl_groundShadow)"/><g filter="cl_softShadow"><g filter="url(#cl_softShadow)"><path d="M44 196 L40 96 L72 132 L92 70 L128 118 L164 70 L184 132 L216 96 L212 196 Z" fill="#3a0610"/></g><path d="M44 196 L40 96 L72 132 L92 70 L128 118 L164 70 L184 132 L216 96 L212 196 Z" fill="url(#cl_bodyGrad)" stroke="#2a040c" stroke-width="7" stroke-linejoin="round"/><g clip-path="url(#cl_bodyClip)"><path d="M44 196 L40 96 L72 132 L92 70 L128 118 L164 70 L184 132 L216 96 L212 196 Z" fill="#fff" opacity="0.5" filter="url(#cl_grime)"/><path d="M40 96 L72 132 L92 70 L128 118 L106 138 L78 150 L52 150 Z" fill="#a8202f" opacity="0.45"/><path d="M44 196 L48 150 L100 150 L96 196 Z" fill="#5e0c1a" opacity="0.6"/><path d="M160 196 L156 150 L208 150 L212 196 Z" fill="#5e0c1a" opacity="0.5"/><path d="M88 74 L92 70 L98 80 L94 130 L88 130 Z" fill="#c8344a" opacity="0.5"/><path d="M160 80 L164 70 L168 78 L166 130 L160 130 Z" fill="#c8344a" opacity="0.45"/></g><path d="M44 196 L40 96 L72 132 L92 70 L128 118 L164 70 L184 132 L216 96 L212 196" fill="none" stroke="#b3203a" stroke-width="2" opacity="0.4" stroke-linejoin="round"/></g><g filter="url(#cl_metalShine)"><path d="M40 96 L48 62 L60 96 Q50 110 40 96 Z" fill="url(#cl_goldGrad)" stroke="#5e3c0e" stroke-width="4.5" stroke-linejoin="round"/><path d="M216 96 L208 62 L196 96 Q206 110 216 96 Z" fill="url(#cl_goldGrad)" stroke="#5e3c0e" stroke-width="4.5" stroke-linejoin="round"/><path d="M76 124 L92 56 L108 124 Q92 138 76 124 Z" fill="url(#cl_goldGrad2)" stroke="#5e3c0e" stroke-width="4.5" stroke-linejoin="round"/><path d="M148 124 L164 56 L180 124 Q164 138 148 124 Z" fill="url(#cl_goldGrad2)" stroke="#5e3c0e" stroke-width="4.5" stroke-linejoin="round"/></g><path d="M48 64 L52 86" stroke="#fff0c0" stroke-width="2.5" stroke-linecap="round" opacity="0.7"/><path d="M208 64 L204 86" stroke="#fff0c0" stroke-width="2.5" stroke-linecap="round" opacity="0.7"/><path d="M92 60 L97 100" stroke="#fff6d8" stroke-width="3" stroke-linecap="round" opacity="0.75"/><path d="M164 60 L168 100" stroke="#fff6d8" stroke-width="3" stroke-linecap="round" opacity="0.7"/><circle cx="48" cy="58" r="4.5" fill="url(#cl_goldGrad2)" stroke="#5e3c0e" stroke-width="2"/><circle cx="208" cy="58" r="4.5" fill="url(#cl_goldGrad2)" stroke="#5e3c0e" stroke-width="2"/><circle cx="92" cy="50" r="5.5" fill="url(#cl_gemGrad)" stroke="#3a040c" stroke-width="2.5"/><circle cx="164" cy="50" r="5.5" fill="url(#cl_gemGrad)" stroke="#3a040c" stroke-width="2.5"/><circle cx="90.5" cy="48" r="1.6" fill="#ffd0c8" opacity="0.9"/><circle cx="162.5" cy="48" r="1.6" fill="#ffd0c8" opacity="0.9"/><rect x="44" y="174" width="168" height="24" rx="5" fill="url(#cl_bandGrad)" stroke="#2a040c" stroke-width="6"/><path d="M48 180 L208 180" stroke="#b3203a" stroke-width="2" opacity="0.4" stroke-linecap="round"/><g opacity="0.85"><path d="M70 174 L78 198 M98 174 L106 198 M154 174 L162 198 M182 174 L190 198" stroke="#3a040c" stroke-width="3" stroke-linecap="round" opacity="0.5"/></g><g opacity="0.9"><path d="M128 162 L120 150 M128 162 L136 150 M110 176 L100 168 M146 176 L156 168" stroke="#2a040c" stroke-width="3.5" stroke-linecap="round"/><circle cx="116" cy="146" r="3" fill="#e6dcc4" stroke="#2a040c" stroke-width="2"/><circle cx="140" cy="146" r="3" fill="#e6dcc4" stroke="#2a040c" stroke-width="2"/></g><ellipse cx="128" cy="152" rx="42" ry="34" fill="url(#cl_eyeGlow)" filter="url(#cl_glow)"/><g filter="url(#cl_softShadow)"><path d="M128 110 Q166 152 128 194 Q90 152 128 110 Z" fill="url(#cl_eyeWhite)" stroke="#2a040c" stroke-width="6" stroke-linejoin="round"/></g><path d="M128 116 Q156 152 128 186 Q116 168 116 152 Q116 136 128 116 Z" fill="#fffaec" opacity="0.5"/><g filter="url(#cl_glow)"><circle cx="128" cy="152" r="20" fill="url(#cl_iris)" stroke="#5a0814" stroke-width="3.5"/></g><circle cx="128" cy="152" r="9.5" fill="#2a040c"/><circle cx="128" cy="152" r="20" fill="none" stroke="#ff4a5e" stroke-width="1.5" opacity="0.5"/><circle cx="122" cy="146" r="4" fill="#fff" opacity="0.9"/><circle cx="133" cy="158" r="2" fill="#ff8a78" opacity="0.7"/><path d="M120 124 Q128 132 136 124" fill="none" stroke="#fff" stroke-width="2" stroke-linecap="round" opacity="0.55"/><path d="M40 96 L60 116" stroke="#c8344a" stroke-width="2.5" stroke-linecap="round" opacity="0.35"/><path d="M216 96 L196 116" stroke="#c8344a" stroke-width="2.5" stroke-linecap="round" opacity="0.3"/></svg>