<svg viewBox="0 0 256 256"><defs><linearGradient id="cp_plate" x1="40" y1="32" x2="216" y2="224" gradientUnits="userSpaceOnUse"><stop offset="0" stop-color="#fff58a"/><stop offset="0.4" stop-color="#fcdd0a"/><stop offset="0.8" stop-color="#c39c00"/><stop offset="1" stop-color="#8f7100"/></linearGradient><linearGradient id="cp_plateTop" x1="60" y1="36" x2="190" y2="120" gradientUnits="userSpaceOnUse"><stop offset="0" stop-color="#ffffff" stop-opacity="0.9"/><stop offset="0.5" stop-color="#fff58a" stop-opacity="0.2"/><stop offset="1" stop-color="#fcdd0a" stop-opacity="0"/></linearGradient><linearGradient id="cp_bevel" x1="48" y1="40" x2="208" y2="216" gradientUnits="userSpaceOnUse"><stop offset="0" stop-color="#fffbe0"/><stop offset="0.5" stop-color="#fcdd0a"/><stop offset="1" stop-color="#6e5800"/></linearGradient><radialGradient id="cp_board" cx="0.45" cy="0.4" r="0.8" gradientUnits="objectBoundingBox"><stop offset="0" stop-color="#1b1606"/><stop offset="0.7" stop-color="#100c03"/><stop offset="1" stop-color="#0d0a02"/></radialGradient><radialGradient id="cp_core" cx="0.5" cy="0.5" r="0.5" gradientUnits="objectBoundingBox"><stop offset="0" stop-color="#ffffff"/><stop offset="0.25" stop-color="#ffb6f6"/><stop offset="0.6" stop-color="#ff3df0"/><stop offset="1" stop-color="#a8009c"/></radialGradient><radialGradient id="cp_coreGlow" cx="0.5" cy="0.5" r="0.5" gradientUnits="objectBoundingBox"><stop offset="0" stop-color="#ff3df0" stop-opacity="0.9"/><stop offset="1" stop-color="#ff3df0" stop-opacity="0"/></radialGradient><linearGradient id="cp_pin" x1="0" y1="0" x2="0" y2="1" gradientUnits="objectBoundingBox"><stop offset="0" stop-color="#ffe98a"/><stop offset="0.5" stop-color="#c39c00"/><stop offset="1" stop-color="#6e5800"/></linearGradient><linearGradient id="cp_ground" x1="0" y1="0" x2="0" y2="1"><stop offset="0" stop-color="#000000" stop-opacity="0.55"/><stop offset="1" stop-color="#000000" stop-opacity="0"/></linearGradient><filter id="cp_glow" x="-40%" y="-40%" width="180%" height="180%"><feGaussianBlur stdDeviation="4" result="b"/><feMerge><feMergeNode in="b"/><feMergeNode in="SourceGraphic"/></feMerge></filter><filter id="cp_softGlow" x="-60%" y="-60%" width="220%" height="220%"><feGaussianBlur stdDeviation="7"/></filter><filter id="cp_chroma" x="-20%" y="-20%" width="140%" height="140%"><feOffset in="SourceGraphic" dx="-2.2" dy="0" result="r"/><feColorMatrix in="r" type="matrix" values="0 0 0 0 0.17  0 0 0 0 0.91  0 0 0 0 0.92  0 0 0 0.9 0" result="cy"/><feOffset in="SourceGraphic" dx="2.4" dy="0" result="g"/><feColorMatrix in="g" type="matrix" values="0 0 0 0 1  0 0 0 0 0.24  0 0 0 0 0.94  0 0 0 0.9 0" result="mg"/><feGaussianBlur in="cy" stdDeviation="0.6" result="cyb"/><feGaussianBlur in="mg" stdDeviation="0.6" result="mgb"/><feMerge><feMergeNode in="cyb"/><feMergeNode in="mgb"/><feMergeNode in="SourceGraphic"/></feMerge></filter><filter id="cp_metal" x="-20%" y="-20%" width="140%" height="140%"><feSpecularLighting result="spec" surfaceScale="2.5" specularConstant="0.8" specularExponent="18" lighting-color="#fffbe0"><fePointLight x="70" y="40" z="120"/></feSpecularLighting><feComposite in="spec" in2="SourceAlpha" operator="in" result="specCut"/><feComposite in="SourceGraphic" in2="specCut" operator="arithmetic" k1="0" k2="1" k3="1" k4="0"/></filter><filter id="cp_surf" x="-20%" y="-20%" width="140%" height="140%"><feTurbulence type="fractalNoise" baseFrequency="0.9" numOctaves="2" seed="7" result="n"/><feDisplacementMap in="SourceGraphic" in2="n" scale="1.6"/></filter><clipPath id="cp_clip"><polygon points="52,52 178,40 216,78 216,178 204,216 78,216 40,178 40,78"/></clipPath><clipPath id="cp_boardClip"><polygon points="78,74 168,74 182,88 182,168 172,182 90,182 76,168 76,88"/></clipPath></defs><ellipse cx="128" cy="226" rx="86" ry="16" fill="url(#cp_ground)"/><g filter="url(#cp_chroma)"><polygon points="52,52 178,40 216,78 216,178 204,216 78,216 40,178 40,78" fill="url(#cp_bevel)"/><polygon points="58,58 174,47 210,82 210,176 198,210 82,210 46,176 46,82" fill="url(#cp_plate)" filter="url(#cp_metal)"/><polygon points="58,58 174,47 210,82 210,118 120,108 58,118" fill="url(#cp_plateTop)" opacity="0.85"/><polygon points="58,58 90,58 70,80 46,82" fill="#fffbe0" opacity="0.7"/><polygon points="178,40 216,78 200,80 168,52" fill="#6e5800" opacity="0.8"/></g><g clip-path="url(#cp_clip)" filter="url(#cp_surf)" opacity="0.25"><rect x="40" y="40" width="180" height="180" fill="#fcdd0a"/></g><polygon points="78,74 168,74 182,88 182,168 172,182 90,182 76,168 76,88" fill="url(#cp_board)"/><polygon points="78,74 168,74 182,88 182,168 172,182 90,182 76,168 76,88" fill="none" stroke="#3a3008" stroke-width="2"/><g clip-path="url(#cp_boardClip)" stroke="#2be8ec" stroke-width="1.4" fill="none" opacity="0.85"><path d="M86,96 L120,96 L128,104 L160,104"/><path d="M86,116 L104,116 L112,124 L150,124 L158,116 L176,116"/><path d="M90,140 L130,140 L138,148 L172,148"/><path d="M100,160 L100,140 L108,132 L108,108"/><path d="M148,170 L148,150 L156,142 L156,118"/></g><g clip-path="url(#cp_boardClip)" stroke="#c39c00" stroke-width="1.2" fill="none" opacity="0.7"><path d="M88,128 L116,128 L124,136 L168,136"/><path d="M132,82 L132,100"/><path d="M118,176 L118,156 L126,148"/></g><g fill="#fcdd0a" clip-path="url(#cp_boardClip)"><circle cx="120" cy="96" r="2.6"/><circle cx="160" cy="104" r="2.6"/><circle cx="104" cy="116" r="2.4"/><circle cx="158" cy="116" r="2.4"/><circle cx="138" cy="148" r="2.6"/><circle cx="100" cy="140" r="2.4"/><circle cx="108" cy="108" r="2.2"/><circle cx="156" cy="142" r="2.4"/><circle cx="116" cy="128" r="2.4"/></g><g clip-path="url(#cp_boardClip)"><rect x="92" y="150" width="20" height="12" fill="#0d0a02" stroke="#c39c00" stroke-width="1"/><rect x="150" y="80" width="18" height="14" fill="#0d0a02" stroke="#2be8ec" stroke-width="1"/><rect x="150" y="83" width="18" height="2" fill="#2be8ec" opacity="0.6"/></g><circle cx="129" cy="128" r="26" fill="url(#cp_coreGlow)" filter="url(#cp_softGlow)"/><circle cx="129" cy="128" r="17" fill="none" stroke="#2be8ec" stroke-width="2.4" filter="url(#cp_glow)" opacity="0.95"/><polygon points="129,112 145,128 129,144 113,128" fill="url(#cp_core)" filter="url(#cp_glow)"/><polygon points="129,118 139,128 129,138 119,128" fill="#ffffff" opacity="0.9"/><g fill="url(#cp_pin)"><rect x="36" y="92" width="10" height="9"/><rect x="36" y="108" width="10" height="9"/><rect x="36" y="124" width="10" height="9"/><rect x="36" y="140" width="10" height="9"/><rect x="36" y="156" width="10" height="9"/><rect x="210" y="92" width="10" height="9"/><rect x="210" y="108" width="10" height="9"/><rect x="210" y="124" width="10" height="9"/><rect x="210" y="140" width="10" height="9"/><rect x="210" y="156" width="10" height="9"/><rect x="98" y="206" width="9" height="10"/><rect x="118" y="206" width="9" height="10"/><rect x="138" y="206" width="9" height="10"/><rect x="158" y="206" width="9" height="10"/></g><g clip-path="url(#cp_clip)" stroke="#2be8ec" stroke-width="1" opacity="0.18"><path d="M40,64 H216"/><path d="M40,76 H216"/><path d="M40,88 H216"/><path d="M40,100 H216"/><path d="M40,112 H216"/><path d="M40,124 H216"/><path d="M40,136 H216"/><path d="M40,148 H216"/><path d="M40,160 H216"/><path d="M40,172 H216"/><path d="M40,184 H216"/><path d="M40,196 H216"/></g><g opacity="0.7"><rect x="58" y="118" width="44" height="3" fill="#2be8ec"/><rect x="60" y="118" width="44" height="3" fill="#ff3df0" opacity="0.6"/><rect x="150" y="166" width="34" height="3" fill="#ff3df0"/><rect x="148" y="166" width="34" height="3" fill="#2be8ec" opacity="0.6"/><rect x="170" y="60" width="22" height="2" fill="#2be8ec"/></g><polygon points="52,52 178,40 216,78" fill="none" stroke="#fffbe0" stroke-width="1.6" opacity="0.8"/><polyline points="216,178 204,216 78,216" fill="none" stroke="#6e5800" stroke-width="1.6" opacity="0.7"/><polygon points="178,40 216,78 200,90 174,56" fill="#161200" opacity="0.5"/></svg>