<svg viewBox="0 0 256 256"><defs><radialGradient id="er_glow" cx="50%" cy="62%" r="52%"><stop offset="0%" stop-color="#ff8a7e"/><stop offset="32%" stop-color="#e63b3f"/><stop offset="72%" stop-color="#9c1c25"/><stop offset="100%" stop-color="#6c121d"/></radialGradient><radialGradient id="er_glassbelly" cx="40%" cy="38%" r="70%"><stop offset="0%" stop-color="#ff8a7e" stop-opacity="0.95"/><stop offset="40%" stop-color="#e63b3f"/><stop offset="80%" stop-color="#8a1620"/><stop offset="100%" stop-color="#6c121d"/></radialGradient><linearGradient id="er_brass" x1="0" y1="0" x2="1" y2="1"><stop offset="0%" stop-color="#f6d98a"/><stop offset="38%" stop-color="#d8aa49"/><stop offset="68%" stop-color="#c8922f"/><stop offset="100%" stop-color="#8a5e22"/></linearGradient><linearGradient id="er_brassdark" x1="0" y1="0" x2="1" y2="1"><stop offset="0%" stop-color="#c8922f"/><stop offset="60%" stop-color="#8a5e22"/><stop offset="100%" stop-color="#5c3c14"/></linearGradient><linearGradient id="er_rim" x1="0" y1="0" x2="0" y2="1"><stop offset="0%" stop-color="#f6d98a"/><stop offset="45%" stop-color="#d8aa49"/><stop offset="55%" stop-color="#8a5e22"/><stop offset="100%" stop-color="#c8922f"/></linearGradient><linearGradient id="er_cloth" x1="0" y1="0" x2="1" y2="1"><stop offset="0%" stop-color="#e8dcc0"/><stop offset="45%" stop-color="#d8c9a8"/><stop offset="100%" stop-color="#b09a70"/></linearGradient><linearGradient id="er_clothfold" x1="0" y1="0" x2="0" y2="1"><stop offset="0%" stop-color="#d8c9a8"/><stop offset="100%" stop-color="#9c875e"/></linearGradient><linearGradient id="er_foot" x1="0" y1="0" x2="0" y2="1"><stop offset="0%" stop-color="#f6d98a"/><stop offset="50%" stop-color="#c8922f"/><stop offset="100%" stop-color="#8a5e22"/></linearGradient><linearGradient id="er_streak" x1="0" y1="0" x2="1" y2="1"><stop offset="0%" stop-color="#ffffff" stop-opacity="0.85"/><stop offset="100%" stop-color="#ffd0c0" stop-opacity="0"/></linearGradient><filter id="er_softglow" x="-20%" y="-20%" width="140%" height="140%"><feGaussianBlur stdDeviation="6" result="b"/><feMerge><feMergeNode in="b"/><feMergeNode in="SourceGraphic"/></feMerge></filter><filter id="er_innerblur" x="-20%" y="-20%" width="140%" height="140%"><feGaussianBlur stdDeviation="4"/></filter><filter id="er_refract" x="-20%" y="-20%" width="140%" height="140%"><feGaussianBlur stdDeviation="2.2"/></filter><filter id="er_grnd" x="-20%" y="-20%" width="140%" height="140%"><feDropShadow dx="0" dy="6" stdDeviation="7" flood-color="#1a0508" flood-opacity="0.55"/></filter><filter id="er_metalshine" x="-20%" y="-20%" width="140%" height="140%"><feGaussianBlur in="SourceAlpha" stdDeviation="1.4" result="bl"/><feSpecularLighting in="bl" surfaceScale="3" specularConstant="0.9" specularExponent="14" lighting-color="#fff6dc" result="sp"><fePointLight x="70" y="40" z="120"/></feSpecularLighting><feComposite in="sp" in2="SourceAlpha" operator="in" result="spc"/><feMerge><feMergeNode in="SourceGraphic"/><feMergeNode in="spc"/></feMerge></filter><clipPath id="er_bellyclip"><path d="M128 96 C168 96 196 128 196 168 C196 210 166 236 128 236 C90 236 60 210 60 168 C60 128 88 96 128 96 Z"/></clipPath></defs><ellipse cx="128" cy="240" rx="62" ry="13" fill="#160407" opacity="0.5" filter="er_grnd"/><ellipse cx="128" cy="240" rx="62" ry="13" fill="#160407" opacity="0.45"/><ellipse cx="128" cy="180" rx="78" ry="78" fill="#e63b3f" opacity="0.18" filter="url(#er_softglow)"/><g filter="url(#er_metalshine)"><path d="M118 70 L138 70 L140 100 L116 100 Z" fill="url(#er_brassdark)" stroke="#3a2a12" stroke-width="1.4"/></g><path d="M122 72 L126 72 L126 100 L122 100 Z" fill="#f6d98a" opacity="0.5"/><g filter="url(#er_grnd)"><path d="M128 96 C168 96 196 128 196 168 C196 210 166 236 128 236 C90 236 60 210 60 168 C60 128 88 96 128 96 Z" fill="url(#er_brass)" stroke="#3a2a12" stroke-width="2.5"/></g><path d="M128 104 C162 104 186 132 186 168 C186 204 160 228 128 228 C96 228 70 204 70 168 C70 132 94 104 128 104 Z" fill="url(#er_glassbelly)" stroke="#5c0f18" stroke-width="2"/><g clip-path="url(#er_bellyclip)"><ellipse cx="122" cy="172" rx="44" ry="46" fill="url(#er_glow)" filter="url(#er_innerblur)"/><ellipse cx="118" cy="150" rx="22" ry="16" fill="#ff8a7e" opacity="0.55" filter="url(#er_innerblur)"/><path d="M88 126 C110 116 150 120 168 140 C150 132 110 132 88 126 Z" fill="#ff8a7e" opacity="0.5" filter="url(#er_refract)"/><path d="M96 118 C104 150 100 190 110 222 C100 200 92 160 96 118 Z" fill="url(#er_streak)" filter="url(#er_refract)"/><path d="M150 130 C158 160 156 196 150 220 C160 192 162 160 150 130 Z" fill="#ffd0c0" opacity="0.3" filter="url(#er_refract)"/></g><g stroke="#8a5e22" stroke-width="2.4" fill="none" opacity="0.9" stroke-linecap="round"><path d="M80 130 C92 120 104 118 116 122"/><path d="M176 130 C164 120 152 118 140 122"/><path d="M72 162 C78 150 90 146 100 150 C90 154 82 160 78 170"/><path d="M184 162 C178 150 166 146 156 150 C166 154 174 160 178 170"/><path d="M88 196 C96 204 108 208 118 206"/><path d="M168 196 C160 204 148 208 138 206"/></g><g stroke="#f6d98a" stroke-width="1.1" fill="none" opacity="0.7" stroke-linecap="round"><path d="M80 128 C92 118 104 116 116 120"/><path d="M176 128 C164 118 152 116 140 120"/><path d="M72 160 C78 148 90 144 100 148"/><path d="M184 160 C178 148 166 144 156 148"/></g><path d="M112 96 L144 96 L142 110 C138 116 118 116 114 110 Z" fill="url(#er_brass)" stroke="#3a2a12" stroke-width="1.8" filter="url(#er_metalshine)"/><ellipse cx="128" cy="100" rx="17" ry="5" fill="url(#er_rim)" stroke="#3a2a12" stroke-width="1.4"/><g filter="url(#er_grnd)"><path d="M108 66 C112 56 144 56 148 66 C152 76 146 90 140 92 C134 80 122 80 116 92 C110 90 104 76 108 66 Z" fill="url(#er_cloth)" stroke="#7a6440" stroke-width="1.6"/><path d="M104 60 C110 50 118 48 128 50 C124 56 116 58 110 64 Z" fill="url(#er_clothfold)" stroke="#7a6440" stroke-width="1.2"/><path d="M152 60 C146 50 138 48 128 50 C132 56 140 58 146 64 Z" fill="url(#er_clothfold)" stroke="#7a6440" stroke-width="1.2"/><path d="M100 70 C92 66 88 74 94 80 C100 78 102 74 104 70 Z" fill="url(#er_clothfold)" stroke="#7a6440" stroke-width="1.2"/><path d="M156 70 C164 66 168 74 162 80 C156 78 154 74 152 70 Z" fill="url(#er_clothfold)" stroke="#7a6440" stroke-width="1.2"/></g><g stroke="#9c875e" stroke-width="1.3" fill="none" opacity="0.85" stroke-linecap="round"><path d="M114 64 C120 60 136 60 142 64"/><path d="M116 74 C122 70 134 70 140 74"/><path d="M112 82 C120 80 136 80 144 82"/></g><g stroke="#efe6cf" stroke-width="0.9" fill="none" opacity="0.7"><path d="M118 62 C124 59 132 59 138 62"/></g><path d="M106 78 C100 84 100 92 106 96 C112 94 110 86 108 80 Z" fill="url(#er_cloth)" stroke="#7a6440" stroke-width="1.2"/><path d="M150 78 C156 84 156 92 150 96 C144 94 146 86 148 80 Z" fill="url(#er_cloth)" stroke="#7a6440" stroke-width="1.2"/><path d="M124 90 C124 100 128 112 128 120 C132 112 132 100 132 90 Z" fill="url(#er_clothfold)" stroke="#7a6440" stroke-width="1"/><g filter="url(#er_grnd)"><path d="M104 226 C104 222 152 222 152 226 L150 238 C148 244 108 244 106 238 Z" fill="url(#er_foot)" stroke="#3a2a12" stroke-width="2"/></g><ellipse cx="128" cy="226" rx="24" ry="5.5" fill="url(#er_rim)" stroke="#3a2a12" stroke-width="1.4"/><ellipse cx="128" cy="240" rx="22" ry="4.5" fill="url(#er_brassdark)" stroke="#3a2a12" stroke-width="1.2"/><path d="M110 228 L110 240 M128 228 L128 240 M146 228 L146 240" stroke="#8a5e22" stroke-width="1.2" opacity="0.6"/><path d="M96 126 C100 116 116 112 120 120 C112 122 104 130 100 142 Z" fill="#ffffff" opacity="0.35" filter="url(#er_refract)"/><ellipse cx="108" cy="150" rx="7" ry="16" fill="#ffffff" opacity="0.28" filter="url(#er_refract)"/><circle cx="150" cy="200" r="6" fill="#ff8a7e" opacity="0.4" filter="url(#er_innerblur)"/><path d="M62 150 C58 168 64 200 84 220" stroke="#f6d98a" stroke-width="1.6" fill="none" opacity="0.45" stroke-linecap="round"/></svg>