<svg viewBox="0 0 256 256"><defs><radialGradient id="hd_skin" cx="40%" cy="33%" r="75%"><stop offset="0%" stop-color="#e0344a"/><stop offset="32%" stop-color="#c8182f"/><stop offset="66%" stop-color="#b3122a"/><stop offset="100%" stop-color="#7a0c1c"/></radialGradient><radialGradient id="hd_skinShade" cx="62%" cy="74%" r="62%"><stop offset="0%" stop-color="#7a0c1c" stop-opacity="0"/><stop offset="70%" stop-color="#6a0a18" stop-opacity="0.5"/><stop offset="100%" stop-color="#4e0612" stop-opacity="0.85"/></radialGradient><radialGradient id="hd_gloss" cx="38%" cy="28%" r="40%"><stop offset="0%" stop-color="#ffe0d0" stop-opacity="0.95"/><stop offset="40%" stop-color="#ff8a72" stop-opacity="0.45"/><stop offset="100%" stop-color="#ff8a72" stop-opacity="0"/></radialGradient><linearGradient id="hd_rim" x1="0%" y1="100%" x2="30%" y2="0%"><stop offset="0%" stop-color="#ffd0a0" stop-opacity="0"/><stop offset="80%" stop-color="#ffd0a0" stop-opacity="0.2"/><stop offset="100%" stop-color="#ffe6c8" stop-opacity="0.9"/></linearGradient><radialGradient id="hd_cavity" cx="50%" cy="45%" r="60%"><stop offset="0%" stop-color="#9a0a1e"/><stop offset="55%" stop-color="#5e0814"/><stop offset="100%" stop-color="#3a040c"/></radialGradient><radialGradient id="hd_pith" cx="48%" cy="40%" r="65%"><stop offset="0%" stop-color="#ffe9d8"/><stop offset="60%" stop-color="#f3c9a8"/><stop offset="100%" stop-color="#d99a78"/></radialGradient><radialGradient id="hd_seed" cx="35%" cy="30%" r="75%"><stop offset="0%" stop-color="#ff8aa0"/><stop offset="35%" stop-color="#ff3b5c"/><stop offset="78%" stop-color="#d4143a"/><stop offset="100%" stop-color="#c01030"/></radialGradient><linearGradient id="hd_crown" x1="0%" y1="0%" x2="60%" y2="100%"><stop offset="0%" stop-color="#ffe9a8"/><stop offset="45%" stop-color="#e0a93a"/><stop offset="100%" stop-color="#9a6a18"/></linearGradient><linearGradient id="hd_crownDark" x1="0%" y1="0%" x2="100%" y2="100%"><stop offset="0%" stop-color="#b88420"/><stop offset="100%" stop-color="#5e3e0a"/></linearGradient><radialGradient id="hd_ground" cx="50%" cy="50%" r="50%"><stop offset="0%" stop-color="#1a0008" stop-opacity="0.55"/><stop offset="70%" stop-color="#1a0008" stop-opacity="0.25"/><stop offset="100%" stop-color="#1a0008" stop-opacity="0"/></radialGradient><filter id="hd_glow" x="-20%" y="-20%" width="140%" height="140%"><feGaussianBlur stdDeviation="3.5" result="b"/><feMerge><feMergeNode in="b"/><feMergeNode in="SourceGraphic"/></feMerge></filter><filter id="hd_drop" x="-20%" y="-20%" width="140%" height="140%"><feDropShadow dx="0" dy="6" stdDeviation="5" flood-color="#2a0008" flood-opacity="0.55"/></filter><filter id="hd_spec" x="-20%" y="-20%" width="140%" height="140%"><feGaussianBlur in="SourceAlpha" stdDeviation="2" result="blur"/><feSpecularLighting in="blur" surfaceScale="4" specularConstant="0.9" specularExponent="22" lighting-color="#fff0e0" result="spec"><fePointLight x="80" y="60" z="120"/></feSpecularLighting><feComposite in="spec" in2="SourceAlpha" operator="in" result="specClip"/><feMerge><feMergeNode in="SourceGraphic"/><feMergeNode in="specClip"/></feMerge></filter><filter id="hd_seedTex" x="-20%" y="-20%" width="140%" height="140%"><feTurbulence type="fractalNoise" baseFrequency="0.12" numOctaves="2" seed="7" result="n"/><feDisplacementMap in="SourceGraphic" in2="n" scale="2.5"/></filter><clipPath id="hd_cavClip"><path d="M150 70 C193 86 206 138 192 178 C181 210 152 220 134 214 C150 190 158 150 150 118 C144 92 142 78 150 70 Z"/></clipPath></defs><ellipse cx="130" cy="226" rx="78" ry="18" fill="url(#hd_ground)"/><g filter="url(#hd_drop)"><g filter="url(#hd_spec)"><path d="M124 44 C176 44 214 92 214 142 C214 196 176 222 126 222 C74 222 38 192 38 140 C38 88 74 44 124 44 Z" fill="url(#hd_skin)"/></g><path d="M124 44 C176 44 214 92 214 142 C214 196 176 222 126 222 C74 222 38 192 38 140 C38 88 74 44 124 44 Z" fill="url(#hd_skinShade)"/><path d="M124 44 C176 44 214 92 214 142 C214 196 176 222 126 222 C74 222 38 192 38 140 C38 88 74 44 124 44 Z" fill="url(#hd_gloss)" filter="url(#hd_glow)"/><path d="M124 44 C176 44 214 92 214 142 C214 196 176 222 126 222 C74 222 38 192 38 140 C38 88 74 44 124 44 Z" fill="none" stroke="url(#hd_rim)" stroke-width="3.5"/><path d="M70 70 C56 92 50 120 54 150" fill="none" stroke="#ff6a78" stroke-width="4" stroke-linecap="round" opacity="0.5" filter="url(#hd_glow)"/><path d="M86 56 C76 64 70 74 66 86" fill="none" stroke="#ffd8c8" stroke-width="3" stroke-linecap="round" opacity="0.8"/></g><g><path d="M150 70 C195 84 210 138 194 180 C182 214 150 224 130 216 C148 192 156 150 148 118 C142 92 140 80 150 70 Z" fill="url(#hd_cavity)"/><path d="M150 70 C195 84 210 138 194 180 C182 214 150 224 130 216 C148 192 156 150 148 118 C142 92 140 80 150 70 Z" fill="none" stroke="#3a040c" stroke-width="2" opacity="0.7"/><g clip-path="url(#hd_cavClip)"><path d="M152 78 C188 92 198 138 186 174 C176 204 152 214 136 208 C150 188 158 150 150 120 C145 96 144 86 152 78 Z" fill="url(#hd_pith)" opacity="0.85"/></g></g><g filter="url(#hd_seedTex)"><g clip-path="url(#hd_cavClip)"><g stroke="#8a0a22" stroke-width="0.8"><ellipse cx="158" cy="98" rx="9" ry="11" fill="url(#hd_seed)"/><ellipse cx="174" cy="110" rx="9" ry="11" fill="url(#hd_seed)"/><ellipse cx="166" cy="124" rx="9.5" ry="11.5" fill="url(#hd_seed)"/><ellipse cx="182" cy="128" rx="9" ry="11" fill="url(#hd_seed)"/><ellipse cx="156" cy="120" rx="9" ry="11" fill="url(#hd_seed)"/><ellipse cx="172" cy="142" rx="10" ry="12" fill="url(#hd_seed)"/><ellipse cx="186" cy="148" rx="9" ry="11" fill="url(#hd_seed)"/><ellipse cx="158" cy="142" rx="9.5" ry="11.5" fill="url(#hd_seed)"/><ellipse cx="176" cy="162" rx="10" ry="12" fill="url(#hd_seed)"/><ellipse cx="162" cy="164" rx="9.5" ry="11.5" fill="url(#hd_seed)"/><ellipse cx="184" cy="170" rx="9" ry="11" fill="url(#hd_seed)"/><ellipse cx="150" cy="160" rx="8.5" ry="10.5" fill="url(#hd_seed)"/><ellipse cx="168" cy="182" rx="9.5" ry="11.5" fill="url(#hd_seed)"/><ellipse cx="154" cy="182" rx="8.5" ry="10.5" fill="url(#hd_seed)"/><ellipse cx="176" cy="198" rx="9" ry="10.5" fill="url(#hd_seed)"/><ellipse cx="160" cy="200" rx="8" ry="10" fill="url(#hd_seed)"/><ellipse cx="166" cy="86" rx="8" ry="10" fill="url(#hd_seed)"/></g></g></g><g clip-path="url(#hd_cavClip)" fill="#ffd0d8" opacity="0.9"><ellipse cx="155" cy="94" rx="2.6" ry="3.4"/><ellipse cx="171" cy="106" rx="2.6" ry="3.4"/><ellipse cx="163" cy="120" rx="2.8" ry="3.6"/><ellipse cx="179" cy="124" rx="2.6" ry="3.4"/><ellipse cx="153" cy="116" rx="2.6" ry="3.4"/><ellipse cx="169" cy="138" rx="2.8" ry="3.6"/><ellipse cx="183" cy="144" rx="2.6" ry="3.4"/><ellipse cx="155" cy="138" rx="2.7" ry="3.5"/><ellipse cx="173" cy="158" rx="2.8" ry="3.6"/><ellipse cx="159" cy="160" rx="2.7" ry="3.5"/><ellipse cx="181" cy="166" rx="2.6" ry="3.4"/><ellipse cx="147" cy="156" rx="2.4" ry="3.2"/><ellipse cx="165" cy="178" rx="2.7" ry="3.5"/><ellipse cx="151" cy="178" rx="2.4" ry="3.2"/><ellipse cx="173" cy="194" rx="2.6" ry="3.3"/><ellipse cx="157" cy="196" rx="2.3" ry="3"/></g><g filter="url(#hd_glow)"><path d="M112 50 L120 18 L128 46 Z" fill="url(#hd_crown)" stroke="#7a5210" stroke-width="1.2"/><path d="M126 48 L138 14 L146 50 Z" fill="url(#hd_crown)" stroke="#7a5210" stroke-width="1.2"/><path d="M140 50 L152 20 L160 56 Z" fill="url(#hd_crownDark)" stroke="#7a5210" stroke-width="1.2"/><path d="M100 54 L106 26 L116 52 Z" fill="url(#hd_crownDark)" stroke="#7a5210" stroke-width="1.2"/><ellipse cx="126" cy="54" rx="30" ry="12" fill="url(#hd_crown)" stroke="#7a5210" stroke-width="1.5"/><ellipse cx="120" cy="50" rx="14" ry="5" fill="#fff0c0" opacity="0.7"/><path d="M118 18 L120 30 M138 14 L139 30 M152 20 L150 32 M106 26 L108 38" stroke="#fff0c0" stroke-width="1.4" stroke-linecap="round" opacity="0.8"/></g><ellipse cx="84" cy="92" rx="16" ry="10" fill="#fff0e0" opacity="0.55" filter="url(#hd_glow)" transform="rotate(-28 84 92)"/></svg>