<svg viewBox="0 0 256 256"><defs><linearGradient id="lc_body" x1="0" y1="0" x2="1" y2="1"><stop offset="0" stop-color="#e6c64a"/><stop offset="0.4" stop-color="#c9a227"/><stop offset="0.78" stop-color="#a8841c"/><stop offset="1" stop-color="#9c7d18"/></linearGradient><linearGradient id="lc_bodyEdge" x1="0" y1="0" x2="1" y2="0"><stop offset="0" stop-color="#f2d667"/><stop offset="0.12" stop-color="#cda82b"/><stop offset="0.88" stop-color="#a8841c"/><stop offset="1" stop-color="#8a6e14"/></linearGradient><linearGradient id="lc_topCap" x1="0" y1="0" x2="0" y2="1"><stop offset="0" stop-color="#f0d05a"/><stop offset="1" stop-color="#b8941f"/></linearGradient><linearGradient id="lc_grilleBg" x1="0" y1="0" x2="0" y2="1"><stop offset="0" stop-color="#26221c"/><stop offset="1" stop-color="#100e0b"/></linearGradient><radialGradient id="lc_speaker" cx="0.4" cy="0.32" r="0.8"><stop offset="0" stop-color="#3a352c"/><stop offset="0.6" stop-color="#1a1814"/><stop offset="1" stop-color="#0c0b08"/></radialGradient><linearGradient id="lc_display" x1="0" y1="0" x2="0" y2="1"><stop offset="0" stop-color="#1c3a32"/><stop offset="0.5" stop-color="#2f6b54"/><stop offset="1" stop-color="#18352b"/></linearGradient><linearGradient id="lc_displayGlass" x1="0" y1="0" x2="1" y2="1"><stop offset="0" stop-color="#bfe9c8" stop-opacity="0.5"/><stop offset="0.5" stop-color="#bfe9c8" stop-opacity="0.05"/><stop offset="1" stop-color="#bfe9c8" stop-opacity="0"/></linearGradient><radialGradient id="lc_knob" cx="0.35" cy="0.3" r="0.85"><stop offset="0" stop-color="#4a443a"/><stop offset="0.55" stop-color="#28241d"/><stop offset="1" stop-color="#0f0d0a"/></radialGradient><radialGradient id="lc_redBtn" cx="0.35" cy="0.3" r="0.85"><stop offset="0" stop-color="#ff7a5a"/><stop offset="0.5" stop-color="#cc2e1e"/><stop offset="1" stop-color="#7a1209"/></radialGradient><linearGradient id="lc_antenna" x1="0" y1="0" x2="1" y2="0"><stop offset="0" stop-color="#3a362e"/><stop offset="0.4" stop-color="#1a1814"/><stop offset="0.6" stop-color="#2a261f"/><stop offset="1" stop-color="#0c0b08"/></linearGradient><radialGradient id="lc_antTip" cx="0.4" cy="0.3" r="0.8"><stop offset="0" stop-color="#5a544a"/><stop offset="1" stop-color="#1a1814"/></radialGradient><radialGradient id="lc_ground" cx="0.5" cy="0.5" r="0.5"><stop offset="0" stop-color="#000000" stop-opacity="0.45"/><stop offset="0.7" stop-color="#000000" stop-opacity="0.18"/><stop offset="1" stop-color="#000000" stop-opacity="0"/></radialGradient><filter id="lc_grime" x="-20%" y="-20%" width="140%" height="140%"><feTurbulence type="fractalNoise" baseFrequency="0.9" numOctaves="3" seed="7" result="n"/><feColorMatrix in="n" type="matrix" values="0 0 0 0 0.16  0 0 0 0 0.14  0 0 0 0 0.11  0 0 0 0.5 0" result="g"/><feComposite in="g" in2="SourceGraphic" operator="in"/></filter><filter id="lc_drop" x="-20%" y="-20%" width="140%" height="140%"><feDropShadow dx="0" dy="3" stdDeviation="3" flood-color="#000000" flood-opacity="0.5"/></filter><filter id="lc_shine" x="-20%" y="-20%" width="140%" height="140%"><feGaussianBlur in="SourceAlpha" stdDeviation="1.2" result="b"/><feSpecularLighting in="b" surfaceScale="3" specularConstant="0.85" specularExponent="18" lighting-color="#fff7d8" result="s"><fePointLight x="80" y="40" z="120"/></feSpecularLighting><feComposite in="s" in2="SourceAlpha" operator="in" result="sc"/><feComposite in="SourceGraphic" in2="sc" operator="arithmetic" k1="0" k2="1" k3="0.9" k4="0"/></filter><filter id="lc_softGlow" x="-40%" y="-40%" width="180%" height="180%"><feGaussianBlur stdDeviation="2.4"/></filter></defs><ellipse cx="130" cy="228" rx="62" ry="13" fill="url(#lc_ground)"/><g filter="url(#lc_drop)"><rect x="78" y="20" width="14" height="46" rx="6" fill="url(#lc_antenna)"/><rect x="80" y="22" width="3.5" height="40" rx="1.6" fill="#6a645a" opacity="0.5"/><ellipse cx="85" cy="20" rx="7.5" ry="5.5" fill="url(#lc_antTip)"/><rect x="74" y="60" width="22" height="14" rx="4" fill="url(#lc_bodyEdge)"/><rect x="74" y="60" width="22" height="4" rx="2" fill="#f0d05a" opacity="0.6"/><g filter="url(#lc_shine)"><rect x="66" y="66" width="118" height="160" rx="16" fill="url(#lc_body)" stroke="#7a610f" stroke-width="2"/></g><rect x="66" y="66" width="118" height="160" rx="16" fill="url(#lc_bodyEdge)" opacity="0.22"/><rect x="70" y="70" width="14" height="150" rx="9" fill="#f2d667" opacity="0.35"/><rect x="166" y="70" width="13" height="150" rx="9" fill="#7a610f" opacity="0.4"/><rect x="70" y="70" width="110" height="9" rx="5" fill="#fbe488" opacity="0.4"/><rect x="70" y="214" width="110" height="9" rx="5" fill="#6e570d" opacity="0.5"/><rect x="66" y="66" width="118" height="160" rx="16" fill="#fff" opacity="0.5" filter="url(#lc_grime)"/><rect x="82" y="84" width="86" height="60" rx="8" fill="#0a0908"/><rect x="84" y="86" width="82" height="56" rx="6" fill="url(#lc_speaker)"/><g fill="#0a0908"><circle cx="98" cy="100" r="3.1"/><circle cx="112" cy="100" r="3.1"/><circle cx="126" cy="100" r="3.1"/><circle cx="140" cy="100" r="3.1"/><circle cx="154" cy="100" r="3.1"/><circle cx="98" cy="114" r="3.1"/><circle cx="112" cy="114" r="3.1"/><circle cx="126" cy="114" r="3.1"/><circle cx="140" cy="114" r="3.1"/><circle cx="154" cy="114" r="3.1"/><circle cx="98" cy="128" r="3.1"/><circle cx="112" cy="128" r="3.1"/><circle cx="126" cy="128" r="3.1"/><circle cx="140" cy="128" r="3.1"/><circle cx="154" cy="128" r="3.1"/></g><g fill="#4d4639" opacity="0.55"><circle cx="96.4" cy="98.4" r="1.1"/><circle cx="110.4" cy="98.4" r="1.1"/><circle cx="124.4" cy="98.4" r="1.1"/><circle cx="138.4" cy="98.4" r="1.1"/><circle cx="96.4" cy="112.4" r="1.1"/><circle cx="124.4" cy="112.4" r="1.1"/><circle cx="152.4" cy="112.4" r="1.1"/><circle cx="110.4" cy="126.4" r="1.1"/><circle cx="138.4" cy="126.4" r="1.1"/></g><rect x="92" y="156" width="66" height="32" rx="5" fill="#0c1410" stroke="#080605" stroke-width="2"/><rect x="95" y="159" width="60" height="26" rx="3" fill="url(#lc_display)"/><rect x="95" y="159" width="60" height="26" rx="3" fill="url(#lc_displayGlass)"/><g fill="#9af0b4" opacity="0.92" filter="url(#lc_softGlow)"><rect x="101" y="164" width="20" height="5" rx="1"/><rect x="101" y="173" width="34" height="3" rx="1"/><rect x="139" y="163" width="11" height="8" rx="1"/></g><g fill="#caffd8" opacity="0.95"><rect x="101" y="164" width="20" height="5" rx="1"/><rect x="101" y="173" width="30" height="2.5" rx="1"/></g><circle cx="98" cy="206" r="13" fill="url(#lc_knob)" stroke="#080605" stroke-width="2"/><circle cx="98" cy="206" r="13" fill="none" stroke="#5a5346" stroke-width="1" opacity="0.5"/><rect x="96.5" y="195" width="3" height="9" rx="1.5" fill="#b8ae98"/><circle cx="93" cy="201" r="3.5" fill="#fff" opacity="0.18"/><circle cx="132" cy="206" r="11" fill="url(#lc_knob)" stroke="#080605" stroke-width="2"/><rect x="130.5" y="197" width="3" height="8" rx="1.5" fill="#a89e88"/><circle cx="128" cy="202" r="3" fill="#fff" opacity="0.16"/><circle cx="160" cy="204" r="9.5" fill="url(#lc_redBtn)" stroke="#5a0f06" stroke-width="2"/><ellipse cx="156.5" cy="200.5" rx="3.4" ry="2.6" fill="#ffd2c2" opacity="0.7"/><g stroke="#2a2620" stroke-linecap="round" opacity="0.4"><line x1="74" y1="150" x2="92" y2="148" stroke-width="1.4"/><line x1="158" y1="172" x2="176" y2="176" stroke-width="1.6"/><line x1="80" y1="192" x2="72" y2="200" stroke-width="1.2"/><line x1="148" y1="92" x2="166" y2="88" stroke-width="1.4"/></g><g stroke="#f7e08e" stroke-linecap="round" opacity="0.35"><line x1="72" y1="100" x2="74" y2="130" stroke-width="1.4"/><line x1="170" y1="120" x2="172" y2="150" stroke-width="1.2"/></g><rect x="71" y="71" width="108" height="150" rx="13" fill="none" stroke="#fff" stroke-width="1" opacity="0.12"/></g></svg>