<svg viewBox="0 0 256 256"><defs><linearGradient id="ml_fieldRed" x1="0" y1="0" x2="0" y2="1"><stop offset="0" stop-color="#a83030"/><stop offset="0.5" stop-color="#8a2424"/><stop offset="1" stop-color="#601515"/></linearGradient><linearGradient id="ml_fieldBlue" x1="0" y1="0" x2="0" y2="1"><stop offset="0" stop-color="#4a6e8c"/><stop offset="0.5" stop-color="#3a5a78"/><stop offset="1" stop-color="#243d52"/></linearGradient><linearGradient id="ml_rim" x1="0" y1="0" x2="1" y2="1"><stop offset="0" stop-color="#b6bcc4"/><stop offset="0.4" stop-color="#8a8f98"/><stop offset="0.7" stop-color="#5a606a"/><stop offset="1" stop-color="#3f444c"/></linearGradient><linearGradient id="ml_rimInner" x1="0" y1="0" x2="0" y2="1"><stop offset="0" stop-color="#9aa0a8"/><stop offset="1" stop-color="#4a505a"/></linearGradient><linearGradient id="ml_gold" x1="0" y1="0" x2="0" y2="1"><stop offset="0" stop-color="#f0d878"/><stop offset="0.45" stop-color="#d8b24a"/><stop offset="1" stop-color="#9a7826"/></linearGradient><linearGradient id="ml_goldDk" x1="0" y1="0" x2="0" y2="1"><stop offset="0" stop-color="#c8a040"/><stop offset="1" stop-color="#6e5418"/></linearGradient><radialGradient id="ml_fieldVig" cx="0.5" cy="0.4" r="0.7"><stop offset="0.55" stop-color="#000000" stop-opacity="0"/><stop offset="1" stop-color="#1a0e08" stop-opacity="0.55"/></radialGradient><linearGradient id="ml_wood" x1="0" y1="0" x2="1" y2="1"><stop offset="0" stop-color="#7a5632"/><stop offset="1" stop-color="#4e3620"/></linearGradient><radialGradient id="ml_rivet" cx="0.35" cy="0.3" r="0.8"><stop offset="0" stop-color="#d6dbe2"/><stop offset="0.5" stop-color="#7e848e"/><stop offset="1" stop-color="#3a3f47"/></radialGradient><radialGradient id="ml_ground" cx="0.5" cy="0.5" r="0.5"><stop offset="0" stop-color="#000000" stop-opacity="0.5"/><stop offset="1" stop-color="#000000" stop-opacity="0"/></radialGradient><filter id="ml_soft" x="-20%" y="-20%" width="140%" height="140%"><feGaussianBlur stdDeviation="1.4"/></filter><filter id="ml_drop" x="-20%" y="-20%" width="140%" height="140%"><feDropShadow dx="0" dy="3" stdDeviation="3" flood-color="#160d06" flood-opacity="0.6"/></filter><filter id="ml_metalShine" x="-20%" y="-20%" width="140%" height="140%"><feGaussianBlur in="SourceAlpha" stdDeviation="1.2" result="b"/><feSpecularLighting in="b" surfaceScale="3" specularConstant="0.85" specularExponent="18" lighting-color="#ffffff" result="s"><fePointLight x="70" y="40" z="120"/></feSpecularLighting><feComposite in="s" in2="SourceAlpha" operator="in" result="sc"/><feComposite in="SourceGraphic" in2="sc" operator="arithmetic" k1="0" k2="1" k3="1" k4="0"/></filter><filter id="ml_tex" x="-20%" y="-20%" width="140%" height="140%"><feTurbulence type="fractalNoise" baseFrequency="0.045 0.07" numOctaves="2" seed="7" result="n"/><feDisplacementMap in="SourceGraphic" in2="n" scale="2.2"/></filter><clipPath id="ml_clip"><path d="M58 44 L198 44 L196 120 Q196 178 128 214 Q60 178 60 120 Z"/></clipPath></defs><ellipse cx="128" cy="226" rx="74" ry="14" fill="url(#ml_ground)"/><path d="M54 40 L202 40 L200 122 Q200 182 128 220 Q56 182 56 122 Z" fill="url(#ml_wood)" filter="url(#ml_drop)"/><path d="M58 44 L198 44 L196 120 Q196 178 128 214 Q60 178 60 120 Z" fill="#261a10" filter="url(#ml_tex)"/><g clip-path="url(#ml_clip)"><rect x="58" y="44" width="70" height="172" fill="url(#ml_fieldRed)"/><rect x="128" y="44" width="70" height="172" fill="url(#ml_fieldBlue)"/><rect x="58" y="44" width="140" height="172" fill="url(#ml_fieldVig)"/><path d="M124 44 L132 44 L132 214 L124 214 Z" fill="#1c1209" opacity="0.55" filter="url(#ml_soft)"/><path d="M70 50 Q150 70 90 130 Q140 110 100 200" stroke="#000000" stroke-opacity="0.18" stroke-width="1" fill="none"/><path d="M160 60 Q140 130 175 170" stroke="#000000" stroke-opacity="0.2" stroke-width="1" fill="none"/><path d="M62 48 L194 48 L192 60 L66 60 Z" fill="#ffffff" opacity="0.12" filter="url(#ml_soft)"/></g><g filter="url(#ml_soft)"><path d="M128 78 q-12 4 -14 16 q-2 10 6 14 q-6 6 -2 16 q4 10 14 8 q-8 6 -2 16 l8 8 q-3 -10 4 -14 q-10 -2 -8 -12 q8 4 12 -4 q3 -8 -5 -12 q9 -2 7 -12 q-2 -10 -12 -10 q5 -8 -2 -14 z" fill="#000000" opacity="0.5"/></g><path d="M128 76 q-13 4 -15 17 q-2 11 7 15 q-7 6 -2 17 q5 10 15 7 q-9 7 -2 17 l9 8 q-3 -11 4 -15 q-11 -2 -9 -13 q9 5 13 -4 q3 -9 -5 -13 q10 -2 7 -13 q-3 -11 -13 -10 q6 -9 -2 -15 z" fill="url(#ml_gold)"/><path d="M128 76 q-13 4 -15 17 q-2 11 7 15 q-7 6 -2 17 q5 10 15 7 q-9 7 -2 17 l9 8 q-3 -11 4 -15 q-11 -2 -9 -13 q9 5 13 -4 q3 -9 -5 -13 q10 -2 7 -13 q-3 -11 -13 -10 q6 -9 -2 -15 z" fill="none" stroke="url(#ml_goldDk)" stroke-width="1.2"/><path d="M126 80 q-9 4 -10 14 q4 -7 11 -8 z" fill="#fbecae" opacity="0.7"/><circle cx="124" cy="92" r="2" fill="#5a4410"/><path d="M54 40 L202 40 L200 122 Q200 182 128 220 Q56 182 56 122 Z" fill="none" stroke="url(#ml_rim)" stroke-width="10" filter="url(#ml_metalShine)"/><path d="M54 40 L202 40 L200 122 Q200 182 128 220 Q56 182 56 122 Z" fill="none" stroke="url(#ml_rimInner)" stroke-width="3" opacity="0.8"/><path d="M58 44 L196 44" stroke="#eef1f4" stroke-width="2" stroke-opacity="0.55" filter="url(#ml_soft)"/><g><circle cx="64" cy="50" r="3" fill="url(#ml_rivet)"/><circle cx="100" cy="42" r="3" fill="url(#ml_rivet)"/><circle cx="156" cy="42" r="3" fill="url(#ml_rivet)"/><circle cx="192" cy="50" r="3" fill="url(#ml_rivet)"/><circle cx="60" cy="100" r="3" fill="url(#ml_rivet)"/><circle cx="196" cy="100" r="3" fill="url(#ml_rivet)"/><circle cx="76" cy="160" r="3" fill="url(#ml_rivet)"/><circle cx="180" cy="160" r="3" fill="url(#ml_rivet)"/><circle cx="128" cy="208" r="3" fill="url(#ml_rivet)"/></g><path d="M64 56 Q60 130 100 188" stroke="#ffffff" stroke-width="1.5" stroke-opacity="0.1" fill="none" filter="url(#ml_soft)"/><path d="M190 60 Q196 130 150 195" stroke="#000000" stroke-width="2" stroke-opacity="0.25" fill="none" filter="url(#ml_soft)"/><path d="M58 44 L198 44 L196 120 Q196 178 128 214 Q60 178 60 120 Z" fill="none" stroke="#160c06" stroke-width="1.5" stroke-opacity="0.5"/></svg>