<svg viewBox="0 0 256 256"><defs><radialGradient id="mc_innerGlow" cx="50%" cy="42%" r="60%"><stop offset="0%" stop-color="#eafdff" stop-opacity="0.95"/><stop offset="45%" stop-color="#bff6ff" stop-opacity="0.5"/><stop offset="100%" stop-color="#4dd0e1" stop-opacity="0"/></radialGradient><linearGradient id="mc_topL" x1="0" y1="0" x2="0.4" y2="1"><stop offset="0%" stop-color="#eafdff"/><stop offset="55%" stop-color="#bff6ff"/><stop offset="100%" stop-color="#6ce0ee"/></linearGradient><linearGradient id="mc_topR" x1="1" y1="0" x2="0.5" y2="1"><stop offset="0%" stop-color="#dffaff"/><stop offset="50%" stop-color="#8fe8f3"/><stop offset="100%" stop-color="#4dd0e1"/></linearGradient><linearGradient id="mc_crown" x1="0" y1="0" x2="0" y2="1"><stop offset="0%" stop-color="#ffffff"/><stop offset="40%" stop-color="#cdf8ff"/><stop offset="100%" stop-color="#7fe4f0"/></linearGradient><linearGradient id="mc_faceLeft" x1="0" y1="0" x2="1" y2="0.6"><stop offset="0%" stop-color="#6ce0ee"/><stop offset="60%" stop-color="#4dd0e1"/><stop offset="100%" stop-color="#2bb5c9"/></linearGradient><linearGradient id="mc_faceRight" x1="1" y1="0" x2="0" y2="0.6"><stop offset="0%" stop-color="#8fe8f3"/><stop offset="55%" stop-color="#4dd0e1"/><stop offset="100%" stop-color="#2bb5c9"/></linearGradient><linearGradient id="mc_centerFace" x1="0" y1="0" x2="0" y2="1"><stop offset="0%" stop-color="#cdf8ff"/><stop offset="45%" stop-color="#6ce0ee"/><stop offset="100%" stop-color="#2bb5c9"/></linearGradient><linearGradient id="mc_lowLeft" x1="0" y1="0" x2="0.7" y2="1"><stop offset="0%" stop-color="#4dd0e1"/><stop offset="70%" stop-color="#2bb5c9"/><stop offset="100%" stop-color="#1a6b78"/></linearGradient><linearGradient id="mc_lowRight" x1="1" y1="0" x2="0.3" y2="1"><stop offset="0%" stop-color="#4dd0e1"/><stop offset="65%" stop-color="#2bb5c9"/><stop offset="100%" stop-color="#1a6b78"/></linearGradient><linearGradient id="mc_tip" x1="0" y1="0" x2="0" y2="1"><stop offset="0%" stop-color="#2bb5c9"/><stop offset="60%" stop-color="#1a6b78"/><stop offset="100%" stop-color="#0e3d45"/></linearGradient><linearGradient id="mc_specBand" x1="0" y1="0" x2="1" y2="1"><stop offset="0%" stop-color="#ffffff" stop-opacity="0.95"/><stop offset="100%" stop-color="#ffffff" stop-opacity="0"/></linearGradient><filter id="mc_glow" x="-20%" y="-20%" width="140%" height="140%"><feGaussianBlur stdDeviation="5" result="b"/><feMerge><feMergeNode in="b"/><feMergeNode in="SourceGraphic"/></feMerge></filter><filter id="mc_ground" x="-20%" y="-20%" width="140%" height="140%"><feDropShadow dx="0" dy="9" stdDeviation="7" flood-color="#0a2c33" flood-opacity="0.55"/></filter><filter id="mc_shine" x="-20%" y="-20%" width="140%" height="140%"><feGaussianBlur in="SourceAlpha" stdDeviation="2" result="blur"/><feSpecularLighting in="blur" surfaceScale="3" specularConstant="0.85" specularExponent="16" lighting-color="#ffffff" result="spec"><fePointLight x="80" y="40" z="120"/></feSpecularLighting><feComposite in="spec" in2="SourceAlpha" operator="in" result="specClip"/><feMerge><feMergeNode in="SourceGraphic"/><feMergeNode in="specClip"/></feMerge></filter><clipPath id="mc_gemClip"><polygon points="128,22 188,52 214,108 168,210 128,234 88,210 42,108 68,52"/></clipPath></defs><ellipse cx="128" cy="226" rx="66" ry="16" fill="#0a2c33" opacity="0.4" filter="url(#mc_ground)"/><g filter="url(#mc_glow)"><ellipse cx="128" cy="120" rx="74" ry="92" fill="url(#mc_innerGlow)" opacity="0.6"/></g><g filter="url(#mc_shine)"><polygon points="128,22 188,52 214,108 168,210 128,234 88,210 42,108 68,52" fill="#2bb5c9"/><g clip-path="url(#mc_gemClip)"><polygon points="128,22 158,58 128,84 98,58" fill="url(#mc_crown)"/><polygon points="128,22 188,52 158,58" fill="url(#mc_topR)"/><polygon points="128,22 68,52 98,58" fill="url(#mc_topL)"/><polygon points="68,52 98,58 84,108 42,108" fill="url(#mc_faceLeft)"/><polygon points="188,52 158,58 172,108 214,108" fill="url(#mc_faceRight)"/><polygon points="98,58 158,58 172,108 84,108" fill="url(#mc_centerFace)"/><polygon points="128,84 158,58 172,108 128,128" fill="url(#mc_faceRight)" opacity="0.85"/><polygon points="128,84 98,58 84,108 128,128" fill="url(#mc_faceLeft)" opacity="0.85"/><polygon points="42,108 84,108 128,128 90,170" fill="url(#mc_lowLeft)"/><polygon points="214,108 172,108 128,128 166,170" fill="url(#mc_lowRight)"/><polygon points="84,108 172,108 128,128" fill="url(#mc_centerFace)" opacity="0.7"/><polygon points="90,170 128,128 166,170 168,210 128,234 88,210" fill="url(#mc_tip)"/><polygon points="128,128 166,170 128,234" fill="#1a6b78" opacity="0.55"/><polygon points="128,128 90,170 128,234" fill="#2bb5c9" opacity="0.4"/><polygon points="128,128 168,210 128,234" fill="#0e3d45" opacity="0.5"/><polygon points="98,58 128,58 128,84" fill="#ffffff" opacity="0.5"/><polygon points="84,108 110,108 100,150 90,140" fill="#bff6ff" opacity="0.45"/><polygon points="128,22 148,46 128,58 110,46" fill="#ffffff" opacity="0.7"/><polygon points="68,52 92,55 86,90" fill="#eafdff" opacity="0.4"/><polygon points="158,58 188,52 178,92 168,90" fill="#eafdff" opacity="0.35"/></g><polygon points="128,22 188,52 214,108 168,210 128,234 88,210 42,108 68,52" fill="none" stroke="#1a6b78" stroke-width="3" stroke-linejoin="round"/><polygon points="128,22 188,52 214,108 168,210 128,234 88,210 42,108 68,52" fill="none" stroke="#eafdff" stroke-width="1" stroke-opacity="0.6" stroke-linejoin="round"/></g><g stroke="#1a6b78" stroke-width="1.2" stroke-opacity="0.55" fill="none" stroke-linejoin="round"><polyline points="68,52 98,58 158,58 188,52"/><polyline points="42,108 84,108 172,108 214,108"/><polyline points="128,22 128,84 128,128 128,234"/><polyline points="98,58 128,84 158,58"/><polyline points="84,108 128,128 172,108"/><polyline points="90,170 128,128 166,170"/></g><polygon points="98,58 122,58 116,78 102,72" fill="url(#mc_specBand)" opacity="0.85"/><rect x="74" y="100" width="20" height="6" rx="2" fill="#ffffff" opacity="0.5"/><circle cx="108" cy="46" r="5" fill="#ffffff" opacity="0.9"/><circle cx="150" cy="98" r="3" fill="#eafdff" opacity="0.8"/><circle cx="118" cy="150" r="2.5" fill="#bff6ff" opacity="0.6"/></svg>