<svg viewBox="0 0 256 256"><defs><linearGradient id="ph_body" x1="0" y1="0" x2="1" y2="1"><stop offset="0" stop-color="#46505d"/><stop offset="0.35" stop-color="#313944"/><stop offset="0.72" stop-color="#222932"/><stop offset="1" stop-color="#141921"/></linearGradient><linearGradient id="ph_bodyEdge" x1="0" y1="0" x2="1" y2="0"><stop offset="0" stop-color="#5a6573"/><stop offset="0.12" stop-color="#3a4личности="#3a4250"/><stop offset="0.9" stop-color="#1a2028"/><stop offset="1" stop-color="#0e1218"/></linearGradient><linearGradient id="ph_bodyEdge2" x1="0" y1="0" x2="1" y2="0"><stop offset="0" stop-color="#5d6876"/><stop offset="0.5" stop-color="#2c3340"/><stop offset="1" stop-color="#10151c"/></linearGradient><linearGradient id="ph_topface" x1="0" y1="0" x2="0" y2="1"><stop offset="0" stop-color="#525d6b"/><stop offset="1" stop-color="#2a313b"/></linearGradient><linearGradient id="ph_sheen" x1="0" y1="0" x2="1" y2="1"><stop offset="0" stop-color="#8b96a4" stop-opacity="0.55"/><stop offset="0.4" stop-color="#5b6573" stop-opacity="0.12"/><stop offset="1" stop-color="#5b6573" stop-opacity="0"/></linearGradient><linearGradient id="ph_screenBg" x1="0" y1="0" x2="0" y2="1"><stop offset="0" stop-color="#0a1f12"/><stop offset="0.5" stop-color="#06140c"/><stop offset="1" stop-color="#030a06"/></linearGradient><linearGradient id="ph_screenStreak" x1="0" y1="0" x2="1" y2="1"><stop offset="0" stop-color="#bfeecf" stop-opacity="0.5"/><stop offset="0.45" stop-color="#bfeecf" stop-opacity="0.06"/><stop offset="1" stop-color="#bfeecf" stop-opacity="0"/></linearGradient><radialGradient id="ph_ledGreen" cx="0.5" cy="0.4" r="0.7"><stop offset="0" stop-color="#aef6c4"/><stop offset="0.4" stop-color="#3ad36a"/><stop offset="1" stop-color="#127a35"/></radialGradient><radialGradient id="ph_ledAmber" cx="0.5" cy="0.4" r="0.7"><stop offset="0" stop-color="#ffe2a8"/><stop offset="0.4" stop-color="#ffb83a"/><stop offset="1" stop-color="#a96d12"/></radialGradient><radialGradient id="ph_ledRed" cx="0.5" cy="0.4" r="0.7"><stop offset="0" stop-color="#ffb0aa"/><stop offset="0.4" stop-color="#e2473f"/><stop offset="1" stop-color="#841d18"/></radialGradient><radialGradient id="ph_ledOff" cx="0.5" cy="0.4" r="0.7"><stop offset="0" stop-color="#2a3138"/><stop offset="1" stop-color="#11161b"/></radialGradient><radialGradient id="ph_btn" cx="0.5" cy="0.35" r="0.8"><stop offset="0" stop-color="#4a5460"/><stop offset="0.6" stop-color="#2a313b"/><stop offset="1" stop-color="#11161c"/></radialGradient><radialGradient id="ph_antTip" cx="0.5" cy="0.4" r="0.7"><stop offset="0" stop-color="#cfe9ff"/><stop offset="0.5" stop-color="#7fa8c8"/><stop offset="1" stop-color="#2a3a48"/></radialGradient><radialGradient id="ph_ground" cx="0.5" cy="0.5" r="0.5"><stop offset="0" stop-color="#000000" stop-opacity="0.55"/><stop offset="1" stop-color="#000000" stop-opacity="0"/></radialGradient><filter id="ph_glow" x="-40%" y="-40%" width="180%" height="180%"><feGaussianBlur stdDeviation="3.2" result="b"/><feMerge><feMergeNode in="b"/><feMergeNode in="SourceGraphic"/></feMerge></filter><filter id="ph_glowBig" x="-60%" y="-60%" width="220%" height="220%"><feGaussianBlur stdDeviation="5"/></filter><filter id="ph_drop" x="-20%" y="-20%" width="140%" height="140%"><feDropShadow dx="0" dy="4" stdDeviation="5" flood-color="#000000" flood-opacity="0.6"/></filter><filter id="ph_spec" x="-20%" y="-20%" width="140%" height="140%"><feGaussianBlur in="SourceAlpha" stdDeviation="2.4" result="blur"/><feSpecularLighting in="blur" surfaceScale="3.5" specularConstant="0.9" specularExponent="22" lighting-color="#cdd8e6" result="spec"><fePointLight x="70" y="30" z="130"/></feSpecularLighting><feComposite in="spec" in2="SourceAlpha" operator="in" result="specClip"/><feMerge><feMergeNode in="SourceGraphic"/><feMergeNode in="specClip"/></feMerge></filter><clipPath id="ph_screenClip"><rect x="92" y="56" width="72" height="44" rx="5"/></clipPath></defs><ellipse cx="128" cy="232" rx="62" ry="13" fill="url(#ph_ground)"/><g filter="ph_drop"><g filter="url(#ph_drop)"><path d="M84 38 q0-8 8-8 l72 0 q8 0 8 8 l6 150 q1 16 -14 16 l-72 0 q-15 0 -14 -16 z" fill="url(#ph_bodyEdge2)"/><path d="M86 40 q0-7 7-7 l70 0 q7 0 7 7 l5 146 q1 13 -12 13 l-70 0 q-13 0 -12 -13 z" fill="url(#ph_body)" filter="url(#ph_spec)"/></g></g><path d="M89 39 q0-6 6-6 l24 0 -1 161 -16 0 q-12 0 -11 -12 z" fill="url(#ph_sheen)"/><path d="M168 44 l4 142 q1 12 -10 13 l-8 0 7 -161 z" fill="#0c1117" opacity="0.55"/><rect x="84" y="118" width="88" height="2.5" fill="#0c1117" opacity="0.5"/><rect x="84" y="121" width="88" height="1" fill="#5a6573" opacity="0.25"/><path d="M150 26 q0-2 2-2 l8 0 q2 0 2 2 l1 8 -14 0 z" fill="url(#ph_bodyEdge)"/><rect x="152" y="14" width="8" height="13" rx="3" fill="url(#ph_topface)"/><circle cx="156" cy="14" r="5" fill="url(#ph_antTip)"/><circle cx="156" cy="14" r="9" fill="#9fd0ff" opacity="0.18" filter="url(#ph_glowBig)"/><rect x="88" y="50" width="80" height="58" rx="7" fill="#0c1117"/><rect x="90" y="52" width="76" height="54" rx="6" fill="#181f27"/><rect x="92" y="56" width="72" height="44" rx="5" fill="url(#ph_screenBg)"/><g clip-path="url(#ph_screenClip)"><rect x="96" y="62" width="40" height="7" rx="1" fill="#3ad36a" opacity="0.85" filter="url(#ph_glow)"/><rect x="96" y="74" width="56" height="5" rx="1" fill="#3ad36a" opacity="0.6"/><rect x="96" y="83" width="30" height="5" rx="1" fill="#3ad36a" opacity="0.55"/><rect x="132" y="83" width="24" height="5" rx="1" fill="#3ad36a" opacity="0.4"/><rect x="96" y="92" width="48" height="4" rx="1" fill="#3ad36a" opacity="0.35"/><path d="M93 57 l34 0 -30 41 -4 0 z" fill="url(#ph_screenStreak)"/><path d="M150 57 l12 0 -22 41 -8 0 z" fill="url(#ph_screenStreak)" opacity="0.5"/></g><rect x="92" y="56" width="72" height="44" rx="5" fill="none" stroke="#000000" stroke-opacity="0.5" stroke-width="1.5"/><rect x="88" y="124" width="80" height="30" rx="6" fill="#0c1117"/><rect x="90" y="126" width="76" height="26" rx="5" fill="#14191f"/><circle cx="104" cy="139" r="8" fill="url(#ph_ledOff)"/><circle cx="104" cy="139" r="6.5" fill="url(#ph_ledGreen)"/><circle cx="104" cy="139" r="11" fill="#3ad36a" opacity="0.4" filter="url(#ph_glowBig)"/><circle cx="119" cy="139" r="8" fill="url(#ph_ledOff)"/><circle cx="119" cy="139" r="6.5" fill="url(#ph_ledGreen)"/><circle cx="119" cy="139" r="11" fill="#3ad36a" opacity="0.35" filter="url(#ph_glowBig)"/><circle cx="134" cy="139" r="8" fill="url(#ph_ledOff)"/><circle cx="134" cy="139" r="6.5" fill="url(#ph_ledAmber)"/><circle cx="134" cy="139" r="11" fill="#ffb83a" opacity="0.4" filter="url(#ph_glowBig)"/><circle cx="149" cy="139" r="8" fill="url(#ph_ledOff)"/><circle cx="149" cy="139" r="6.5" fill="url(#ph_ledAmber)"/><circle cx="149" cy="139" r="11" fill="#ffb83a" opacity="0.3" filter="url(#ph_glowBig)"/><circle cx="164" cy="139" r="8" fill="url(#ph_ledOff)"/><circle cx="164" cy="139" r="6.5" fill="url(#ph_ledRed)"/><circle cx="164" cy="139" r="13" fill="#e2473f" opacity="0.55" filter="url(#ph_glowBig)"/><circle cx="102" cy="136.5" r="2.2" fill="#eafff0" opacity="0.8"/><circle cx="132" cy="136.5" r="2.2" fill="#fff2d6" opacity="0.8"/><circle cx="162" cy="136.5" r="2.2" fill="#ffdedb" opacity="0.85"/><circle cx="110" cy="174" r="11" fill="#0c1117"/><circle cx="110" cy="174" r="9" fill="url(#ph_btn)"/><circle cx="107" cy="171" r="3" fill="#5a6573" opacity="0.5"/><rect x="134" y="166" width="26" height="16" rx="5" fill="#0c1117"/><rect x="136" y="168" width="22" height="12" rx="4" fill="url(#ph_btn)"/><rect x="138" y="169" width="10" height="3" rx="1.5" fill="#5a6573" opacity="0.45"/><path d="M94 158 q40 6 78 -2" stroke="#0a0e13" stroke-width="3" fill="none" opacity="0.4"/><path d="M98 200 q30 3 60 -3" stroke="#5a6573" stroke-width="0.8" fill="none" opacity="0.22"/><path d="M96 108 q34 4 70 -2" stroke="#5a6573" stroke-width="0.7" fill="none" opacity="0.2"/><path d="M104 46 l40 1" stroke="#0a0e13" stroke-width="2" opacity="0.35"/><path d="M150 190 l-6 9" stroke="#6a7480" stroke-width="0.7" opacity="0.25"/><path d="M100 70 l-7 12" stroke="#6a7480" stroke-width="0.6" opacity="0.18"/><path d="M158 150 l5 8" stroke="#0a0e13" stroke-width="0.8" opacity="0.3"/><path d="M120 188 l8 6" stroke="#5a6573" stroke-width="0.6" opacity="0.2"/><path d="M91 44 q-4 4 -3 12 l3 130" stroke="#aab4c2" stroke-width="1.6" fill="none" opacity="0.3"/></svg>