<svg viewBox="0 0 256 256"><defs><radialGradient id="sk_aura" cx="50%" cy="48%" r="55%"><stop offset="0%" stop-color="#bfe6ff" stop-opacity="0.55"/><stop offset="40%" stop-color="#7fb8ff" stop-opacity="0.28"/><stop offset="100%" stop-color="#42206a" stop-opacity="0"/></radialGradient><radialGradient id="sk_core" cx="50%" cy="52%" r="50%"><stop offset="0%" stop-color="#ffffff"/><stop offset="35%" stop-color="#bfe6ff"/><stop offset="70%" stop-color="#7fb8ff"/><stop offset="100%" stop-color="#7fb8ff" stop-opacity="0"/></radialGradient><linearGradient id="sk_facetL" x1="0" y1="0" x2="1" y2="1"><stop offset="0%" stop-color="#8a5fc0"/><stop offset="55%" stop-color="#6a3d9a"/><stop offset="100%" stop-color="#42206a"/></linearGradient><linearGradient id="sk_facetR" x1="1" y1="0" x2="0" y2="1"><stop offset="0%" stop-color="#7d52b3"/><stop offset="50%" stop-color="#542d82"/><stop offset="100%" stop-color="#341a55"/></linearGradient><linearGradient id="sk_facetLitL" x1="0" y1="0" x2="1" y2="1"><stop offset="0%" stop-color="#b487e0"/><stop offset="60%" stop-color="#8a5fc0"/><stop offset="100%" stop-color="#5a3590"/></linearGradient><linearGradient id="sk_facetLitR" x1="1" y1="0" x2="0" y2="1"><stop offset="0%" stop-color="#9a6fd0"/><stop offset="100%" stop-color="#4a2878"/></linearGradient><linearGradient id="sk_topFacet" x1="0.5" y1="0" x2="0.5" y2="1"><stop offset="0%" stop-color="#cdaef0"/><stop offset="50%" stop-color="#8a5fc0"/><stop offset="100%" stop-color="#5a3590"/></linearGradient><linearGradient id="sk_botFacet" x1="0.5" y1="0" x2="0.5" y2="1"><stop offset="0%" stop-color="#42206a"/><stop offset="100%" stop-color="#1c1030"/></linearGradient><linearGradient id="sk_innerGlow" x1="0.5" y1="0" x2="0.5" y2="1"><stop offset="0%" stop-color="#bfe6ff"/><stop offset="100%" stop-color="#7fb8ff"/></linearGradient><radialGradient id="sk_ground" cx="50%" cy="50%" r="50%"><stop offset="0%" stop-color="#1c1030" stop-opacity="0.6"/><stop offset="100%" stop-color="#1c1030" stop-opacity="0"/></radialGradient><filter id="sk_soft" x="-40%" y="-40%" width="180%" height="180%"><feGaussianBlur stdDeviation="6"/></filter><filter id="sk_softcore" x="-50%" y="-50%" width="200%" height="200%"><feGaussianBlur stdDeviation="3.5"/></filter><filter id="sk_spec" x="-20%" y="-20%" width="140%" height="140%"><feGaussianBlur in="SourceAlpha" stdDeviation="2" result="b"/><feSpecularLighting in="b" surfaceScale="4" specularConstant="0.9" specularExponent="22" lighting-color="#ffffff" result="s"><fePointLight x="90" y="50" z="120"/></feSpecularLighting><feComposite in="s" in2="SourceAlpha" operator="in" result="sc"/><feComposite in="SourceGraphic" in2="sc" operator="arithmetic" k1="0" k2="1" k3="1" k4="0"/></filter><filter id="sk_drop" x="-30%" y="-30%" width="160%" height="160%"><feDropShadow dx="0" dy="4" stdDeviation="4" flood-color="#1c1030" flood-opacity="0.7"/></filter></defs><ellipse cx="128" cy="226" rx="58" ry="16" fill="url(#sk_ground)"/><ellipse cx="128" cy="128" rx="92" ry="100" fill="url(#sk_aura)" filter="url(#sk_soft)"/><g filter="url(#sk_drop)"><g filter="url(#sk_spec)"><polygon points="128,22 100,70 128,82 156,70" fill="url(#sk_topFacet)" stroke="#1c1030" stroke-width="1.5"/><polygon points="100,70 80,120 110,135 128,82" fill="url(#sk_facetL)" stroke="#1c1030" stroke-width="1.5"/><polygon points="156,70 176,120 146,135 128,82" fill="url(#sk_facetR)" stroke="#1c1030" stroke-width="1.5"/><polygon points="128,82 110,135 128,148 146,135" fill="url(#sk_facetLitL)" stroke="#1c1030" stroke-width="1.5"/><polygon points="80,120 110,135 128,148 96,180" fill="url(#sk_facetLitL)" stroke="#1c1030" stroke-width="1.5"/><polygon points="176,120 146,135 128,148 160,180" fill="url(#sk_facetLitR)" stroke="#1c1030" stroke-width="1.5"/><polygon points="96,180 128,148 160,180 128,234" fill="url(#sk_botFacet)" stroke="#1c1030" stroke-width="1.5"/><polygon points="96,180 128,148 128,234" fill="url(#sk_facetR)" opacity="0.6" stroke="#1c1030" stroke-width="1"/></g></g><g opacity="0.92"><ellipse cx="128" cy="120" rx="34" ry="48" fill="url(#sk_core)" filter="url(#sk_soft)"/><path d="M112,90 C150,95 138,130 116,140 C146,150 130,178 128,180" fill="none" stroke="url(#sk_innerGlow)" stroke-width="6" stroke-linecap="round" opacity="0.85" filter="url(#sk_softcore)"/><path d="M140,96 C108,110 130,140 150,150" fill="none" stroke="#bfe6ff" stroke-width="4" stroke-linecap="round" opacity="0.7" filter="url(#sk_softcore)"/><ellipse cx="128" cy="118" rx="13" ry="18" fill="#eaf6ff" filter="url(#sk_softcore)"/><ellipse cx="128" cy="116" rx="6" ry="9" fill="#ffffff"/></g><g opacity="0.95"><path d="M128,82 L128,148" stroke="#cdaef0" stroke-width="1" opacity="0.5"/><path d="M110,135 L146,135" stroke="#cdaef0" stroke-width="1" opacity="0.4"/><polygon points="128,24 106,66 128,78 132,40" fill="#e8d6ff" opacity="0.45"/><polygon points="146,135 160,178 150,170 140,140" fill="#b487e0" opacity="0.5"/></g><g fill="#ffffff"><circle cx="118" cy="58" r="3.4" opacity="0.95"/><circle cx="93" cy="118" r="2.6" opacity="0.8"/><circle cx="150" cy="100" r="2" opacity="0.7"/><circle cx="128" cy="86" r="2.2" opacity="0.85"/><path d="M118,50 L120,58 L118,66 L116,58 Z" opacity="0.85"/><path d="M110,58 L118,56 L126,58 L118,60 Z" opacity="0.85"/></g><circle cx="128" cy="120" r="40" fill="none" stroke="#7fb8ff" stroke-width="2" opacity="0.18" filter="url(#sk_soft)"/></svg>