<svg viewBox="0 0 256 256"><defs><radialGradient id="sd_ground" cx="50%" cy="50%" r="50%"><stop offset="0%" stop-color="rgba(40,30,12,0.40)"/><stop offset="65%" stop-color="rgba(40,30,12,0.22)"/><stop offset="100%" stop-color="rgba(40,30,12,0)"/></radialGradient><linearGradient id="sd_root" x1="20%" y1="10%" x2="80%" y2="95%"><stop offset="0%" stop-color="#f6edcb"/><stop offset="32%" stop-color="#f0e2b8"/><stop offset="70%" stop-color="#e3cf9a"/><stop offset="100%" stop-color="#dcc88a"/></linearGradient><linearGradient id="sd_rootHi" x1="0%" y1="0%" x2="100%" y2="100%"><stop offset="0%" stop-color="rgba(255,251,235,0.95)"/><stop offset="55%" stop-color="rgba(255,251,235,0.30)"/><stop offset="100%" stop-color="rgba(255,251,235,0)"/></linearGradient><linearGradient id="sd_rootShad" x1="100%" y1="0%" x2="0%" y2="60%"><stop offset="0%" stop-color="rgba(150,120,60,0.55)"/><stop offset="100%" stop-color="rgba(150,120,60,0)"/></linearGradient><linearGradient id="sd_tip" x1="0%" y1="0%" x2="50%" y2="100%"><stop offset="0%" stop-color="#dcc88a"/><stop offset="55%" stop-color="#c9a86a"/><stop offset="100%" stop-color="#b08f54"/></linearGradient><linearGradient id="sd_leafA" x1="20%" y1="100%" x2="60%" y2="0%"><stop offset="0%" stop-color="#4f8a2a"/><stop offset="55%" stop-color="#6fae3e"/><stop offset="100%" stop-color="#8ec85a"/></linearGradient><linearGradient id="sd_leafB" x1="80%" y1="100%" x2="40%" y2="0%"><stop offset="0%" stop-color="#467d24"/><stop offset="55%" stop-color="#65a338"/><stop offset="100%" stop-color="#83bd50"/></linearGradient><linearGradient id="sd_leafC" x1="50%" y1="100%" x2="50%" y2="0%"><stop offset="0%" stop-color="#4f8a2a"/><stop offset="60%" stop-color="#74b342"/><stop offset="100%" stop-color="#97d063"/></linearGradient><linearGradient id="sd_stem" x1="0%" y1="100%" x2="100%" y2="0%"><stop offset="0%" stop-color="#5f9a34"/><stop offset="100%" stop-color="#8ac255"/></linearGradient><radialGradient id="sd_topGlow" cx="50%" cy="30%" r="60%"><stop offset="0%" stop-color="rgba(255,255,230,0.55)"/><stop offset="100%" stop-color="rgba(255,255,230,0)"/></radialGradient><filter id="sd_drop" x="-20%" y="-20%" width="140%" height="140%"><feDropShadow dx="0" dy="3" stdDeviation="3" flood-color="rgba(50,38,16,0.45)"/></filter><filter id="sd_soft" x="-20%" y="-20%" width="140%" height="140%"><feGaussianBlur stdDeviation="2.2"/></filter><filter id="sd_spec" x="-20%" y="-20%" width="140%" height="140%"><feGaussianBlur in="SourceAlpha" stdDeviation="3" result="b"/><feSpecularLighting in="b" surfaceScale="3" specularConstant="0.8" specularExponent="18" lighting-color="#fffbe8" result="s"><fePointLight x="90" y="40" z="120"/></feSpecularLighting><feComposite in="s" in2="SourceAlpha" operator="in" result="sc"/><feComposite in="SourceGraphic" in2="sc" operator="arithmetic" k1="0" k2="1" k3="0.8" k4="0"/></filter></defs><ellipse cx="128" cy="226" rx="62" ry="16" fill="url(#sd_ground)"/><g filter="url(#sd_drop)"><path d="M118 92 C108 120 104 150 110 178 C114 198 122 214 128 222 C134 214 142 198 146 178 C152 150 148 120 138 92 Z" fill="url(#sd_root)"/><path d="M118 92 C108 120 104 150 110 178 C114 198 122 214 128 222 C134 214 142 198 146 178 C152 150 148 120 138 92 Z" fill="url(#sd_rootShad)"/><path d="M118 92 C108 120 104 150 110 178 C114 198 122 214 128 222 C134 214 142 198 146 178 C152 150 148 120 138 92 Z" fill="none" stroke="#5a4a2a" stroke-width="2.4" stroke-linejoin="round" opacity="0.85"/></g><path d="M112 198 C118 212 124 220 128 224 C132 220 138 212 144 198 C140 208 134 216 128 220 C122 216 116 208 112 198 Z" fill="url(#sd_tip)"/><path d="M108 122 C118 126 138 126 148 122" fill="none" stroke="#cbb47a" stroke-width="3" stroke-linecap="round" opacity="0.7"/><path d="M107 121 C118 125 138 125 149 121" fill="none" stroke="#fbf3d6" stroke-width="1.4" stroke-linecap="round" opacity="0.8"/><path d="M106 150 C117 154 139 154 150 150" fill="none" stroke="#cbb47a" stroke-width="3" stroke-linecap="round" opacity="0.65"/><path d="M105 149 C117 153 139 153 151 149" fill="none" stroke="#fbf3d6" stroke-width="1.3" stroke-linecap="round" opacity="0.75"/><path d="M110 176 C119 179 137 179 146 176" fill="none" stroke="#cbb47a" stroke-width="2.6" stroke-linecap="round" opacity="0.55"/><path d="M122 100 C116 130 113 160 118 190 C120 200 124 210 127 216" fill="none" stroke="url(#sd_rootHi)" stroke-width="6" stroke-linecap="round" filter="url(#sd_soft)"/><g filter="url(#sd_drop)"><path d="M126 96 C120 78 118 58 124 42 C128 32 132 30 132 30 C130 40 130 56 134 70 C137 80 134 90 130 96 Z" fill="url(#sd_leafC)"/><path d="M126 96 C120 78 118 58 124 42 C128 32 132 30 132 30 C130 40 130 56 134 70 C137 80 134 90 130 96 Z" fill="none" stroke="#3d6f1f" stroke-width="1.8" stroke-linejoin="round" opacity="0.7"/><path d="M120 94 C104 78 92 56 92 38 C92 30 94 26 94 26 C100 42 110 62 124 80 C128 86 126 92 122 94 Z" fill="url(#sd_leafA)"/><path d="M120 94 C104 78 92 56 92 38 C92 30 94 26 94 26 C100 42 110 62 124 80 C128 86 126 92 122 94 Z" fill="none" stroke="#3d6f1f" stroke-width="1.8" stroke-linejoin="round" opacity="0.7"/><path d="M136 94 C152 78 164 56 164 38 C164 30 162 26 162 26 C156 42 146 62 132 80 C128 86 130 92 134 94 Z" fill="url(#sd_leafB)"/><path d="M136 94 C152 78 164 56 164 38 C164 30 162 26 162 26 C156 42 146 62 132 80 C128 86 130 92 134 94 Z" fill="none" stroke="#3d6f1f" stroke-width="1.8" stroke-linejoin="round" opacity="0.7"/><path d="M114 96 C100 88 84 80 76 70 C70 62 70 58 70 58 C82 66 100 76 118 86 C124 90 120 95 114 96 Z" fill="url(#sd_leafA)" opacity="0.96"/><path d="M114 96 C100 88 84 80 76 70 C70 62 70 58 70 58 C82 66 100 76 118 86 C124 90 120 95 114 96 Z" fill="none" stroke="#3d6f1f" stroke-width="1.6" stroke-linejoin="round" opacity="0.65"/><path d="M142 96 C156 88 172 80 180 70 C186 62 186 58 186 58 C174 66 156 76 138 86 C132 90 136 95 142 96 Z" fill="url(#sd_leafB)" opacity="0.96"/><path d="M142 96 C156 88 172 80 180 70 C186 62 186 58 186 58 C174 66 156 76 138 86 C132 90 136 95 142 96 Z" fill="none" stroke="#3d6f1f" stroke-width="1.6" stroke-linejoin="round" opacity="0.65"/></g><g stroke="#3d6f1f" stroke-width="1.3" stroke-linecap="round" opacity="0.55" fill="none"><path d="M129 92 C128 74 127 54 128 36"/><path d="M120 90 C112 76 102 58 95 40"/><path d="M136 90 C144 76 154 58 161 40"/><path d="M116 92 C104 84 90 76 78 64"/><path d="M140 92 C152 84 166 76 178 64"/></g><g stroke="rgba(190,225,140,0.7)" stroke-width="1.1" stroke-linecap="round" opacity="0.7" fill="none"><path d="M126 88 C125 72 124 54 126 38"/><path d="M94 42 C100 56 110 72 122 84"/></g><path d="M124 96 C124 92 132 92 132 96 C132 100 124 100 124 96 Z" fill="url(#sd_stem)" stroke="#3d6f1f" stroke-width="1.2"/><ellipse cx="100" cy="48" rx="9" ry="16" fill="url(#sd_topGlow)" filter="url(#sd_soft)" transform="rotate(-22 100 48)"/><path d="M118 96 C112 116 110 140 113 162" fill="none" stroke="rgba(90,74,42,0.4)" stroke-width="3" stroke-linecap="round" filter="url(#sd_soft)"/><g filter="url(#sd_spec)" opacity="0.0"><circle cx="128" cy="140" r="1"/></g></svg>