<svg viewBox="0 0 256 256"><defs><linearGradient id="sm_basketFront" x1="0" y1="0" x2="0" y2="1"><stop offset="0" stop-color="#eef3fa"/><stop offset="1" stop-color="#cdd8e6"/></linearGradient><linearGradient id="sm_basketSide" x1="0" y1="0" x2="1" y2="0.4"><stop offset="0" stop-color="#c4d0e0"/><stop offset="1" stop-color="#a8b6c8"/></linearGradient><linearGradient id="sm_basketTop" x1="0" y1="0" x2="0" y2="1"><stop offset="0" stop-color="#f3f7fc"/><stop offset="1" stop-color="#d8e2ee"/></linearGradient><linearGradient id="sm_basketInner" x1="0" y1="0" x2="0" y2="1"><stop offset="0" stop-color="#9eadc0"/><stop offset="1" stop-color="#b9c6d6"/></linearGradient><linearGradient id="sm_handle" x1="0" y1="0" x2="0" y2="1"><stop offset="0" stop-color="#ec5d70"/><stop offset="0.5" stop-color="#d6394f"/><stop offset="1" stop-color="#a8273a"/></linearGradient><linearGradient id="sm_rim" x1="0" y1="0" x2="1" y2="0"><stop offset="0" stop-color="#f4f8fd"/><stop offset="0.5" stop-color="#dde6f0"/><stop offset="1" stop-color="#b4c2d2"/></linearGradient><radialGradient id="sm_wheelHub" cx="0.4" cy="0.35" r="0.7"><stop offset="0" stop-color="#6b7689"/><stop offset="1" stop-color="#3a4656"/></radialGradient><linearGradient id="sm_leg" x1="0" y1="0" x2="0" y2="1"><stop offset="0" stop-color="#d6e0ec"/><stop offset="1" stop-color="#9aa9bc"/></linearGradient><linearGradient id="sm_milkFront" x1="0" y1="0" x2="0" y2="1"><stop offset="0" stop-color="#ffffff"/><stop offset="1" stop-color="#e2e9f0"/></linearGradient><linearGradient id="sm_milkSide" x1="0" y1="0" x2="1" y2="0"><stop offset="0" stop-color="#dce4ee"/><stop offset="1" stop-color="#c3cedb"/></linearGradient><linearGradient id="sm_boxOrFront" x1="0" y1="0" x2="0" y2="1"><stop offset="0" stop-color="#f5b962"/><stop offset="1" stop-color="#efa53e"/></linearGradient><linearGradient id="sm_boxOrSide" x1="0" y1="0" x2="1" y2="0"><stop offset="0" stop-color="#dc8f2e"/><stop offset="1" stop-color="#c87c22"/></linearGradient><linearGradient id="sm_boxOrTop" x1="0" y1="0" x2="0" y2="1"><stop offset="0" stop-color="#ffcf86"/><stop offset="1" stop-color="#f7bd66"/></linearGradient><linearGradient id="sm_boxRdFront" x1="0" y1="0" x2="0" y2="1"><stop offset="0" stop-color="#ec5e53"/><stop offset="1" stop-color="#e2473f"/></linearGradient><linearGradient id="sm_boxRdSide" x1="0" y1="0" x2="1" y2="0"><stop offset="0" stop-color="#c93a33"/><stop offset="1" stop-color="#b32f29"/></linearGradient><linearGradient id="sm_boxRdTop" x1="0" y1="0" x2="0" y2="1"><stop offset="0" stop-color="#f6837a"/><stop offset="1" stop-color="#ec6259"/></linearGradient><radialGradient id="sm_leaf" cx="0.4" cy="0.3" r="0.8"><stop offset="0" stop-color="#7ad97d"/><stop offset="1" stop-color="#5cc35f"/></radialGradient><filter id="sm_softShadow" x="-20%" y="-20%" width="140%" height="140%"><feGaussianBlur in="SourceAlpha" stdDeviation="3.5"/><feOffset dx="0" dy="2" result="o"/><feFlood flood-color="#1b2330" flood-opacity="0.28"/><feComposite in2="o" operator="in"/></filter><filter id="sm_metalShine" x="-20%" y="-20%" width="140%" height="140%"><feSpecularLighting result="spec" surfaceScale="2.4" specularConstant="0.7" specularExponent="14" lighting-color="#ffffff"><fePointLight x="70" y="40" z="120"/></feSpecularLighting><feComposite in="spec" in2="SourceAlpha" operator="in" result="specClip"/><feComposite in="SourceGraphic" in2="specClip" operator="arithmetic" k1="0" k2="1" k3="0.9" k4="0"/></filter><filter id="sm_groundBlur" x="-30%" y="-30%" width="160%" height="160%"><feGaussianBlur stdDeviation="5"/></filter></defs><ellipse cx="128" cy="222" rx="84" ry="15" fill="#1b2330" opacity="0.26" filter="url(#sm_groundBlur)"/><g stroke="#7c8aa0" stroke-width="1.4" stroke-linecap="round"><line x1="70" y1="205" x2="62" y2="178"/><line x1="158" y1="205" x2="172" y2="172"/></g><g><rect x="56" y="200" width="16" height="14" rx="3" fill="url(#sm_leg)" stroke="#7c8aa0" stroke-width="1"/><rect x="150" y="200" width="16" height="14" rx="3" fill="url(#sm_leg)" stroke="#7c8aa0" stroke-width="1"/><rect x="98" y="204" width="14" height="12" rx="3" fill="url(#sm_leg)" stroke="#7c8aa0" stroke-width="1"/><rect x="178" y="200" width="14" height="12" rx="3" fill="url(#sm_leg)" stroke="#7c8aa0" stroke-width="1"/></g><g stroke="#27303d" stroke-width="1"><circle cx="64" cy="213" r="9" fill="url(#sm_wheelHub)"/><circle cx="64" cy="213" r="3.2" fill="#566174"/><circle cx="158" cy="213" r="9" fill="url(#sm_wheelHub)"/><circle cx="158" cy="213" r="3.2" fill="#566174"/><circle cx="105" cy="215" r="8" fill="url(#sm_wheelHub)"/><circle cx="105" cy="215" r="2.8" fill="#566174"/><circle cx="185" cy="211" r="8" fill="url(#sm_wheelHub)"/><circle cx="185" cy="211" r="2.8" fill="#566174"/></g><g filter="url(#sm_metalShine)"><polygon points="58,118 170,118 188,196 84,196" fill="url(#sm_basketFront)" stroke="#90a0b4" stroke-width="1.4" stroke-linejoin="round"/><polygon points="170,118 214,104 224,178 188,196" fill="url(#sm_basketSide)" stroke="#90a0b4" stroke-width="1.4" stroke-linejoin="round"/><polygon points="58,118 170,118 214,104 92,104" fill="url(#sm_basketInner)" stroke="#90a0b4" stroke-width="1.2" stroke-linejoin="round" opacity="0.95"/></g><g stroke="#aebbcd" stroke-width="1.05" opacity="0.85"><line x1="74" y1="118" x2="93" y2="196"/><line x1="93" y1="118" x2="108" y2="196"/><line x1="112" y1="118" x2="124" y2="196"/><line x1="131" y1="118" x2="140" y2="196"/><line x1="150" y1="118" x2="156" y2="196"/><line x1="63" y1="138" x2="178" y2="138"/><line x1="69" y1="164" x2="184" y2="164"/></g><g stroke="#b6c3d4" stroke-width="0.9" opacity="0.7"><line x1="183" y1="113" x2="196" y2="190"/><line x1="199" y1="109" x2="210" y2="184"/><line x1="172" y1="135" x2="220" y2="121"/><line x1="180" y1="160" x2="223" y2="148"/></g><polygon points="58,118 170,118 214,104 92,104" fill="none" stroke="url(#sm_rim)" stroke-width="3.4" stroke-linejoin="round"/><polygon points="58,118 170,118 188,196 84,196" fill="none" stroke="#c8d4e2" stroke-width="2" stroke-linejoin="round" opacity="0.6"/><g stroke="#bcccdc" stroke-width="1" opacity="0.55"><line x1="58" y1="118" x2="84" y2="196"/></g><g filter="url(#sm_metalShine)"><polygon points="100,108 118,104 122,124 104,128" fill="url(#sm_basketInner)" stroke="#9aa9bc" stroke-width="1" stroke-linejoin="round"/></g><line x1="100" y1="108" x2="104" y2="128" stroke="#8593a6" stroke-width="1" opacity="0.7"/><g><polygon points="92,72 116,72 116,124 92,124" fill="url(#sm_milkFront)" stroke="#bcc6d2" stroke-width="1.2" stroke-linejoin="round"/><polygon points="116,72 130,66 130,118 116,124" fill="url(#sm_milkSide)" stroke="#bcc6d2" stroke-width="1.2" stroke-linejoin="round"/><polygon points="92,72 116,72 130,66 106,66" fill="#ffffff" stroke="#cdd6e0" stroke-width="1" stroke-linejoin="round"/><polygon points="92,72 116,72 110,56 98,56" fill="#f2f5f9" stroke="#cdd6e0" stroke-width="1" stroke-linejoin="round"/><polygon points="116,72 130,66 124,52 110,56" fill="#dfe6ee" stroke="#cdd6e0" stroke-width="1" stroke-linejoin="round"/><rect x="98" y="88" width="12" height="22" rx="1.5" fill="#5cc35f" opacity="0.85"/></g><g><polygon points="124,96 152,96 152,128 124,128" fill="url(#sm_boxOrFront)" stroke="#c87c22" stroke-width="1.2" stroke-linejoin="round"/><polygon points="152,96 168,90 168,122 152,128" fill="url(#sm_boxOrSide)" stroke="#c87c22" stroke-width="1.2" stroke-linejoin="round"/><polygon points="124,96 152,96 168,90 140,90" fill="url(#sm_boxOrTop)" stroke="#d99a3a" stroke-width="1" stroke-linejoin="round"/><line x1="128" y1="110" x2="148" y2="110" stroke="#d98f2a" stroke-width="2.2" opacity="0.7"/><circle cx="138" cy="104" r="3" fill="#f4f1e8" opacity="0.8"/></g><g><polygon points="150,108 174,108 174,132 150,132" fill="url(#sm_boxRdFront)" stroke="#b32f29" stroke-width="1.2" stroke-linejoin="round"/><polygon points="174,108 186,103 186,127 174,132" fill="url(#sm_boxRdSide)" stroke="#b32f29" stroke-width="1.2" stroke-linejoin="round"/><polygon points="150,108 174,108 186,103 162,103" fill="url(#sm_boxRdTop)" stroke="#d24b41" stroke-width="1" stroke-linejoin="round"/><rect x="155" y="115" width="14" height="8" rx="1" fill="#f4f1e8" opacity="0.85"/></g><g><ellipse cx="80" cy="96" rx="15" ry="13" fill="url(#sm_leaf)" stroke="#3f9a44" stroke-width="1.2"/><path d="M80 84 Q72 90 74 100 Q80 96 80 84Z" fill="#8fe392" opacity="0.8"/><path d="M80 84 Q88 90 86 102 Q80 96 80 84Z" fill="#4fae52" opacity="0.7"/><path d="M70 92 Q66 86 74 86 Q72 90 70 92Z" fill="#5cc35f" stroke="#3f9a44" stroke-width="0.8"/><line x1="80" y1="88" x2="80" y2="106" stroke="#3f9a44" stroke-width="0.9" opacity="0.6"/></g><g><polygon points="46,116 60,116 78,194 64,196" fill="url(#sm_basketSide)" stroke="#90a0b4" stroke-width="1.4" stroke-linejoin="round"/><path d="M44 88 Q40 80 48 78 L60 76 Q66 76 64 84 L58 116 L46 116 Z" fill="url(#sm_handle)" stroke="#9b243a" stroke-width="1.2" stroke-linejoin="round"/><path d="M46 82 Q50 79 60 78 L59 84 Q51 84 48 87 Z" fill="#ffffff" opacity="0.35"/><rect x="50" y="96" width="9" height="14" rx="2" fill="#c12f44" opacity="0.55"/></g><g stroke="#aebbcd" stroke-width="0.9" opacity="0.6"><line x1="50" y1="118" x2="68" y2="194"/><line x1="55" y1="118" x2="72" y2="194"/></g><path d="M62,124 L168,124 L185,188" fill="none" stroke="#ffffff" stroke-width="1.6" opacity="0.3" stroke-linecap="round"/></svg>