<svg viewBox="0 0 256 256"><defs><radialGradient id="wt_diskGrad" cx="42%" cy="36%" r="75%"><stop offset="0%" stop-color="#e8ecf2"/><stop offset="32%" stop-color="#c2c8d0"/><stop offset="64%" stop-color="#8a909a"/><stop offset="100%" stop-color="#4a4f57"/></radialGradient><radialGradient id="wt_diskInner" cx="50%" cy="44%" r="60%"><stop offset="0%" stop-color="#2a2e34"/><stop offset="55%" stop-color="#20242a"/><stop offset="100%" stop-color="#15181c"/></radialGradient><linearGradient id="wt_rimGrad" x1="0%" y1="0%" x2="100%" y2="100%"><stop offset="0%" stop-color="#e8ecf2"/><stop offset="30%" stop-color="#aab0ba"/><stop offset="55%" stop-color="#6c727c"/><stop offset="80%" stop-color="#4a4f57"/><stop offset="100%" stop-color="#8a909a"/></linearGradient><linearGradient id="wt_rimBevel" x1="20%" y1="0%" x2="80%" y2="100%"><stop offset="0%" stop-color="#f2f5fa"/><stop offset="45%" stop-color="#9aa0aa"/><stop offset="100%" stop-color="#3a3e45"/></linearGradient><linearGradient id="wt_wolfGrad" x1="30%" y1="10%" x2="70%" y2="95%"><stop offset="0%" stop-color="#eef1f6"/><stop offset="28%" stop-color="#c2c8d0"/><stop offset="58%" stop-color="#8a909a"/><stop offset="82%" stop-color="#565b63"/><stop offset="100%" stop-color="#3a3e45"/></linearGradient><linearGradient id="wt_snoutGrad" x1="20%" y1="20%" x2="80%" y2="90%"><stop offset="0%" stop-color="#dfe3ea"/><stop offset="45%" stop-color="#a2a8b2"/><stop offset="100%" stop-color="#4a4f57"/></linearGradient><linearGradient id="wt_earGrad" x1="10%" y1="0%" x2="90%" y2="100%"><stop offset="0%" stop-color="#e2e6ec"/><stop offset="50%" stop-color="#9aa0aa"/><stop offset="100%" stop-color="#3a3e45"/></linearGradient><linearGradient id="wt_fangGrad" x1="50%" y1="0%" x2="50%" y2="100%"><stop offset="0%" stop-color="#f4f6fa"/><stop offset="60%" stop-color="#c2c8d0"/><stop offset="100%" stop-color="#7c828c"/></linearGradient><radialGradient id="wt_eyeGrad" cx="40%" cy="38%" r="70%"><stop offset="0%" stop-color="#3a3e45"/><stop offset="50%" stop-color="#1a1d22"/><stop offset="100%" stop-color="#0c0e11"/></radialGradient><linearGradient id="wt_chainGrad" x1="0%" y1="0%" x2="100%" y2="100%"><stop offset="0%" stop-color="#e8ecf2"/><stop offset="50%" stop-color="#9aa0aa"/><stop offset="100%" stop-color="#4a4f57"/></linearGradient><linearGradient id="wt_tongueGrad" x1="50%" y1="0%" x2="50%" y2="100%"><stop offset="0%" stop-color="#5a4046"/><stop offset="100%" stop-color="#2c1d22"/></linearGradient><filter id="wt_groundShadow" x="-20%" y="-20%" width="140%" height="140%"><feDropShadow dx="0" dy="5" stdDeviation="6" flood-color="#000000" flood-opacity="0.55"/></filter><filter id="wt_metalSpec" x="-20%" y="-20%" width="140%" height="140%"><feGaussianBlur in="SourceAlpha" stdDeviation="2.4" result="wt_blur"/><feSpecularLighting in="wt_blur" surfaceScale="3.5" specularConstant="0.9" specularExponent="16" lighting-color="#f2f5fa" result="wt_spec"><fePointLight x="70" y="48" z="150"/></feSpecularLighting><feComposite in="wt_spec" in2="SourceAlpha" operator="in" result="wt_specClip"/><feComposite in="SourceGraphic" in2="wt_specClip" operator="arithmetic" k1="0" k2="1" k3="0.85" k4="0"/></filter><filter id="wt_softGlow" x="-20%" y="-20%" width="140%" height="140%"><feGaussianBlur stdDeviation="1.6"/></filter><filter id="wt_engrave" x="-20%" y="-20%" width="140%" height="140%"><feGaussianBlur in="SourceAlpha" stdDeviation="1" result="wt_eb"/><feOffset in="wt_eb" dx="0" dy="1.5" result="wt_eo"/><feComposite in="SourceGraphic" in2="wt_eo" operator="over"/></filter><clipPath id="wt_diskClip"><circle cx="128" cy="138" r="86"/></clipPath></defs><ellipse cx="128" cy="232" rx="62" ry="11" fill="#000000" opacity="0.45" filter="url(#wt_softGlow)"/><g filter="url(#wt_groundShadow)"><path d="M118 30 q-7 4 -3 11 q5 7 13 6" fill="none" stroke="url(#wt_chainGrad)" stroke-width="4" stroke-linecap="round"/><ellipse cx="128" cy="40" rx="11" ry="8" fill="none" stroke="url(#wt_chainGrad)" stroke-width="5"/><ellipse cx="128" cy="40" rx="11" ry="8" fill="none" stroke="#20242a" stroke-width="1.4" opacity="0.6"/><ellipse cx="128" cy="52" rx="7" ry="9" fill="none" stroke="url(#wt_chainGrad)" stroke-width="5"/><circle cx="128" cy="138" r="88" fill="url(#wt_rimGrad)" filter="url(#wt_metalSpec)"/><circle cx="128" cy="138" r="88" fill="none" stroke="#20242a" stroke-width="2"/><circle cx="128" cy="138" r="80" fill="url(#wt_rimBevel)"/><circle cx="128" cy="138" r="74" fill="url(#wt_diskInner)"/><circle cx="128" cy="138" r="74" fill="none" stroke="#0c0e11" stroke-width="2.5"/><circle cx="128" cy="138" r="80" fill="none" stroke="#e8ecf2" stroke-width="0.8" opacity="0.5"/><g clip-path="url(#wt_diskClip)"><path d="M70 150 q10 22 30 30" stroke="#0c0e11" stroke-width="1" fill="none" opacity="0.4"/><path d="M186 150 q-10 22 -30 30" stroke="#0c0e11" stroke-width="1" fill="none" opacity="0.4"/></g><g filter="url(#wt_metalSpec)"><path d="M86 110 q6 -22 22 -30 q-4 8 -2 16 q-12 8 -20 14 Z" fill="url(#wt_earGrad)"/><path d="M170 110 q-6 -22 -22 -30 q4 8 2 16 q12 8 20 14 Z" fill="url(#wt_earGrad)"/><path d="M88 112 q5 -18 18 -26" stroke="#20242a" stroke-width="1.6" fill="none" opacity="0.7"/><path d="M168 112 q-5 -18 -18 -26" stroke="#20242a" stroke-width="1.6" fill="none" opacity="0.7"/><path d="M92 132 q-10 -6 -14 -2 q4 10 14 12 Z" fill="url(#wt_wolfGrad)"/><path d="M164 132 q10 -6 14 -2 q-4 10 -14 12 Z" fill="url(#wt_wolfGrad)"/><path d="M96 118 q-8 16 -4 34 q4 18 18 30 q-22 -10 -28 -34 q-4 -20 14 -30 Z" fill="url(#wt_wolfGrad)"/><path d="M160 118 q8 16 4 34 q-4 18 -18 30 q22 -10 28 -34 q4 -20 -14 -30 Z" fill="url(#wt_wolfGrad)"/><path d="M104 116 q24 -10 48 0 q14 6 16 26 q2 18 -10 34 q-8 -28 -30 -30 q-22 2 -30 30 q-12 -16 -10 -34 q2 -20 16 -26 Z" fill="url(#wt_wolfGrad)"/><path d="M112 152 q16 -10 32 0 q8 6 8 18 q0 12 -8 22 q-2 -16 -16 -18 q-14 2 -16 18 q-8 -10 -8 -22 q0 -12 8 -18 Z" fill="url(#wt_snoutGrad)"/></g><path d="M104 116 q24 -10 48 0" stroke="#20242a" stroke-width="1.6" fill="none" opacity="0.7"/><path d="M118 122 q10 -5 20 0" stroke="#20242a" stroke-width="1.2" fill="none" opacity="0.6"/><path d="M100 140 q-3 14 4 26" stroke="#0c0e11" stroke-width="1.2" fill="none" opacity="0.6"/><path d="M156 140 q3 14 -4 26" stroke="#0c0e11" stroke-width="1.2" fill="none" opacity="0.6"/><g filter="url(#wt_engrave)"><ellipse cx="113" cy="138" rx="9" ry="7" fill="url(#wt_eyeGrad)"/><ellipse cx="143" cy="138" rx="9" ry="7" fill="url(#wt_eyeGrad)"/></g><path d="M104 134 q8 -6 18 -1" stroke="#0c0e11" stroke-width="2" fill="none" opacity="0.8"/><path d="M152 134 q-8 -6 -18 -1" stroke="#0c0e11" stroke-width="2" fill="none" opacity="0.8"/><circle cx="110" cy="135" r="2" fill="#e8ecf2" opacity="0.7" filter="url(#wt_softGlow)"/><circle cx="140" cy="135" r="2" fill="#e8ecf2" opacity="0.7" filter="url(#wt_softGlow)"/><path d="M120 158 q8 -5 16 0 q-2 6 -8 7 q-6 -1 -8 -7 Z" fill="#1a1d22"/><path d="M120 158 q8 -5 16 0" stroke="#0c0e11" stroke-width="1.4" fill="none"/><path d="M126 165 q2 4 5 4 q3 0 5 -4 q-2 14 -5 18 q-3 -4 -5 -18 Z" fill="url(#wt_tongueGrad)" opacity="0.9"/><path d="M110 172 q18 14 36 0 q-2 12 -18 14 q-16 -2 -18 -14 Z" fill="url(#wt_diskInner)"/><path d="M110 172 q18 14 36 0" stroke="#0c0e11" stroke-width="1.4" fill="none"/><path d="M111 171 l4 12 l4 -11 Z" fill="url(#wt_fangGrad)"/><path d="M145 171 l-4 12 l-4 -11 Z" fill="url(#wt_fangGrad)"/><path d="M120 176 l3 9 l3 -8 Z" fill="url(#wt_fangGrad)" opacity="0.92"/><path d="M136 176 l-3 9 l-3 -8 Z" fill="url(#wt_fangGrad)" opacity="0.92"/><path d="M128 178 l2 7 l2 -6 Z" fill="url(#wt_fangGrad)" opacity="0.85"/><path d="M105 118 q-6 4 -8 12" stroke="#e8ecf2" stroke-width="0.6" fill="none" opacity="0.45"/><path d="M150 120 q5 6 7 14" stroke="#0c0e11" stroke-width="0.7" fill="none" opacity="0.4"/><path d="M90 150 q4 8 10 14" stroke="#0c0e11" stroke-width="0.6" fill="none" opacity="0.4"/><path d="M70 100 q14 -10 30 -8" stroke="#0c0e11" stroke-width="0.7" fill="none" opacity="0.3"/><path d="M160 184 q12 -6 20 -16" stroke="#e8ecf2" stroke-width="0.6" fill="none" opacity="0.3"/><path d="M64 120 a74 74 0 0 1 26 -38" stroke="#f2f5fa" stroke-width="2.5" fill="none" opacity="0.4" filter="url(#wt_softGlow)"/><path d="M188 158 a74 74 0 0 1 -22 40" stroke="#15181c" stroke-width="3" fill="none" opacity="0.45" filter="url(#wt_softGlow)"/></g></svg>